<svg xmlns="http://www.w3.org/2000/svg" viewBox="0 0 937.47 360.47"><defs><style>.cls-1{fill:#b4d0d8;}.cls-2,.cls-3,.cls-4,.cls-7{fill:#fff;}.cls-2{opacity:0.15;}.cls-12,.cls-14,.cls-19,.cls-2,.cls-3,.cls-4{isolation:isolate;}.cls-3{opacity:0.2;}.cls-4{opacity:0.58;}.cls-5{fill:#25b3b7;}.cls-6{opacity:0.19;}.cls-8{opacity:0.37;}.cls-9{fill:#ce3e4c;}.cls-10{fill:#e5556a;}.cls-11{fill:#bc282f;}.cls-12{fill:#ea8b98;}.cls-12,.cls-19{opacity:0.38;}.cls-13,.cls-14,.cls-20,.cls-27,.cls-28{fill:none;}.cls-13,.cls-14,.cls-20{stroke:#282828;}.cls-13,.cls-14,.cls-20,.cls-27{stroke-linecap:round;stroke-linejoin:round;}.cls-13{stroke-width:0.65px;}.cls-14,.cls-20,.cls-27{stroke-width:0.97px;}.cls-14{opacity:0.22;}.cls-15{fill:#8c1e2e;}.cls-16{opacity:0.25;}.cls-17{fill:#3a121a;}.cls-18{fill:#282828;}.cls-19{fill:#3d3d3d;}.cls-21{fill:#d8d8d9;}.cls-22{opacity:0.28;}.cls-23{fill:#fffff3;}.cls-24{fill:#f9aa68;}.cls-25{fill:#f28d41;}.cls-26{fill:#894532;}.cls-27,.cls-28{stroke:#383838;}.cls-28{stroke-miterlimit:10;stroke-width:0.16px;}.cls-29{fill:#b5b5b5;}.cls-30{fill:#4ca6a8;}.cls-31{fill:#071232;}</style></defs><g id="Illustration"><g id="Option_2" data-name="Option 2"><rect class="cls-1" x="546.71" y="33.25" width="161.77" height="161.77"/><circle class="cls-2" cx="627.59" cy="114.13" r="66.1"/><circle class="cls-3" cx="627.59" cy="114.13" r="54.26"/><circle class="cls-4" cx="627.59" cy="114.13" r="42.45"/><rect class="cls-5" x="546.71" y="136.78" width="161.77" height="58.24"/><g class="cls-6"><path class="cls-7" d="M704.34,247.79h0a2.64,2.64,0,0,0,2.64-2.64h0a2.64,2.64,0,0,0-2.64-2.63h0a2.63,2.63,0,0,0-2.63,2.63h0A2.64,2.64,0,0,0,704.34,247.79Z" transform="translate(-47.15 -76.5)"/><path class="cls-7" d="M712.63,237.24h5.24a2.64,2.64,0,0,0,2.64-2.63h0a2.64,2.64,0,0,0-2.64-2.64h-5.24a2.64,2.64,0,0,0-2.64,2.64h0A2.64,2.64,0,0,0,712.63,237.24Z" transform="translate(-47.15 -76.5)"/><path class="cls-7" d="M726.38,237.24h0a2.63,2.63,0,0,0,2.63-2.63h0a2.64,2.64,0,0,0-2.63-2.64h0a2.64,2.64,0,0,0-2.64,2.64h0A2.64,2.64,0,0,0,726.38,237.24Z" transform="translate(-47.15 -76.5)"/><path class="cls-7" d="M715.91,224.06h0a2.64,2.64,0,0,0-2.64-2.64H633a2.64,2.64,0,0,0-2.64,2.64h0a2.64,2.64,0,0,0,2.64,2.63h29.44a2.64,2.64,0,0,1,2.64,2.64h0a2.64,2.64,0,0,1-2.64,2.64H641.92a2.64,2.64,0,0,0-2.64,2.64h0a2.64,2.64,0,0,0,2.64,2.63H655.1a2.64,2.64,0,0,1,2.64,2.64h0a2.64,2.64,0,0,1-2.64,2.64H633.47a2.64,2.64,0,0,0-2.64,2.63h0a2.64,2.64,0,0,0,2.64,2.64h27.08a2.64,2.64,0,0,1,2.64,2.64h0a2.64,2.64,0,0,1-2.64,2.63H657a2.64,2.64,0,0,0-2.64,2.64h0a2.64,2.64,0,0,0,2.64,2.64h23.91a2.64,2.64,0,0,0,2.63-2.64h0a2.64,2.64,0,0,0-2.63-2.64h-1.35a2.63,2.63,0,0,1-2.63-2.63h0a2.64,2.64,0,0,1,2.63-2.64h16.68a2.64,2.64,0,0,0,2.64-2.64h0a2.64,2.64,0,0,0-2.64-2.63H686.16a2.64,2.64,0,0,1-2.64-2.64h0a2.64,2.64,0,0,1,2.64-2.64h18a2.64,2.64,0,0,0,2.64-2.63h0a2.64,2.64,0,0,0-2.64-2.64H693.26a2.64,2.64,0,0,1-2.63-2.64h0a2.64,2.64,0,0,1,2.63-2.64h20A2.64,2.64,0,0,0,715.91,224.06Zm-41.64,18.46h-5.34a2.64,2.64,0,0,1-2.64-2.64h0a2.64,2.64,0,0,1,2.64-2.64h5.34a2.64,2.64,0,0,1,2.64,2.64h0A2.64,2.64,0,0,1,674.27,242.52ZM679.8,232h-2.26a2.64,2.64,0,0,1-2.64-2.64h0a2.64,2.64,0,0,1,2.64-2.64h2.26a2.64,2.64,0,0,1,2.64,2.64h0A2.64,2.64,0,0,1,679.8,232Z" transform="translate(-47.15 -76.5)"/><path class="cls-7" d="M649.11,258.34h0a2.64,2.64,0,0,1-2.63-2.64h0a2.64,2.64,0,0,1,2.63-2.64h0a2.64,2.64,0,0,1,2.64,2.64h0A2.64,2.64,0,0,1,649.11,258.34Z" transform="translate(-47.15 -76.5)"/><path class="cls-7" d="M693.41,258.34h0a2.64,2.64,0,0,1-2.64-2.64h0a2.64,2.64,0,0,1,2.64-2.64h0A2.64,2.64,0,0,1,696,255.7h0A2.64,2.64,0,0,1,693.41,258.34Z" transform="translate(-47.15 -76.5)"/></g><g class="cls-8"><path class="cls-7" d="M648.42,226.69h9.48a2.65,2.65,0,0,1,2.64,2.64h0A2.64,2.64,0,0,1,657.9,232h-8.51a2.64,2.64,0,0,0-2.64,2.64h0a2.64,2.64,0,0,0,2.64,2.63h8.38a2.64,2.64,0,0,1,2.64,2.64h0a2.64,2.64,0,0,1-2.64,2.64h-1.15a2.64,2.64,0,0,0-2.64,2.63h0a2.64,2.64,0,0,0,2.64,2.64h6.67a2.64,2.64,0,0,1,2.63,2.64h0a2.63,2.63,0,0,1-2.63,2.63H663a2.64,2.64,0,0,0-2.63,2.64h0a2.64,2.64,0,0,0,2.63,2.64H678.2a2.64,2.64,0,0,0,2.64-2.64h0a2.64,2.64,0,0,0-2.64-2.64h-3.59a2.64,2.64,0,0,1-2.64-2.63h0a2.64,2.64,0,0,1,2.64-2.64H686.4a2.64,2.64,0,0,0,2.64-2.64h0a2.64,2.64,0,0,0-2.64-2.63h-1.86a2.64,2.64,0,0,1-2.63-2.64h0a2.64,2.64,0,0,1,2.63-2.64h1.62a2.64,2.64,0,0,0,2.64-2.63h0a2.64,2.64,0,0,0-2.64-2.64H673.64a2.64,2.64,0,0,1-2.64-2.64h0a2.64,2.64,0,0,1,2.64-2.64h6.5a2.64,2.64,0,0,0,2.64-2.63h0a2.64,2.64,0,0,0-2.64-2.64H648.43a2.64,2.64,0,0,0-2.63,2.64h0A2.61,2.61,0,0,0,648.42,226.69Zm17.5,13.19h0a2.64,2.64,0,0,1,2.64-2.64h4.85a2.64,2.64,0,0,1,2.64,2.64h0a2.64,2.64,0,0,1-2.64,2.64h-4.85A2.64,2.64,0,0,1,665.92,239.88Z" transform="translate(-47.15 -76.5)"/></g><path class="cls-9" d="M660.78,221.44h32.94c9-3.38,13.07-10,13.07-18.61,0-.53,0-1.08-.07-1.61a100.28,100.28,0,0,1-14.15,1.22,10.81,10.81,0,0,1-10.37,7.71H670.71A5.19,5.19,0,0,1,665.5,205v-.84h-.31a5.21,5.21,0,0,1-5.2-5.21v-2.53a56.4,56.4,0,0,1-11.65-2.89,21.56,21.56,0,0,0-.76,5.64C647.56,209.81,651.75,217.67,660.78,221.44Z" transform="translate(-47.15 -76.5)"/><path class="cls-10" d="M660,198.9v-2.52a56.56,56.56,0,0,1-11.65-2.9,22.06,22.06,0,0,0-.76,5.65c0,.71,0,1.39.05,2.09l15.29,2.39A5.27,5.27,0,0,1,660,198.9Z" transform="translate(-47.15 -76.5)"/><path class="cls-11" d="M686.63,209.19a10.6,10.6,0,0,1-4.43.94H670.71a5.37,5.37,0,0,1-3-.94H649.11a20,20,0,0,0,11.67,12.25h32.94c6.63-2.49,10.58-6.75,12.19-12.25Z" transform="translate(-47.15 -76.5)"/><path class="cls-12" d="M658.29,196.38v2.76A5.86,5.86,0,0,0,664,205h.34v.76a5.69,5.69,0,0,0,5.71,5.7h12.62A11.84,11.84,0,0,0,694,203a113.18,113.18,0,0,0,12.7-.94c0-.29,0-.59,0-.88a100.29,100.29,0,0,1-14.16,1.22,10.79,10.79,0,0,1-10.37,7.71H670.68a5.19,5.19,0,0,1-5.21-5.18v-.84h-.31a5.22,5.22,0,0,1-5.21-5.21v-2.53a56.31,56.31,0,0,1-11.64-2.89c-.07.21-.12.42-.17.63A68.56,68.56,0,0,0,658.29,196.38Z" transform="translate(-47.15 -76.5)"/><path class="cls-13" d="M660,198.9v-2.52a56.56,56.56,0,0,1-11.65-2.9,22.06,22.06,0,0,0-.76,5.65c0,.71,0,1.39.05,2.09l15.29,2.39A5.27,5.27,0,0,1,660,198.9Z" transform="translate(-47.15 -76.5)"/><rect class="cls-14" x="605.67" y="123.53" width="4.5" height="4.5"/><path class="cls-13" d="M698.52,209.19H686.61a10.57,10.57,0,0,1-4.43.94H670.69a5.34,5.34,0,0,1-3-.94h-7" transform="translate(-47.15 -76.5)"/><path class="cls-13" d="M659.18,209.19H649.11a20,20,0,0,0,11.67,12.25h32.94c6.63-2.49,10.58-6.75,12.19-12.25H700" transform="translate(-47.15 -76.5)"/><path class="cls-15" d="M652.37,215.19a20.6,20.6,0,0,0,8.41,6.25h32.94a20.8,20.8,0,0,0,9.09-6.25Z" transform="translate(-47.15 -76.5)"/><g class="cls-16"><path class="cls-17" d="M706.71,201.22c-.86.14-1.75.25-2.62.37,0,.35,0,.73,0,1.08H694a1.89,1.89,0,0,0,1.89,1.89h8.19a18.12,18.12,0,0,1-6,12.77,11.29,11.29,0,0,1-7.62,2.52H664.73a11.18,11.18,0,0,1-6.15-1.44c-6.67-4.19-9.79-11.32-9.79-20.56,0-.21.16-1.28.26-1.88a.37.37,0,0,1,.47-.3l7.44,1.81a1.49,1.49,0,0,0,1.62-.67c0-.06.06-.09.06-.12.07-.51-9.54-2.43-9.44-2.92-.3-.09-.59-.21-.86-.3a21.56,21.56,0,0,0-.76,5.64c0,10.7,4.17,18.56,13.2,22.33h32.94l.76-.31.24-.1a3.78,3.78,0,0,0,.5-.22l.26-.12.47-.22.24-.12c.18-.09.36-.17.53-.27l.15-.08c.23-.12.44-.25.65-.37l.19-.12.45-.27a1.53,1.53,0,0,0,.23-.15,4.4,4.4,0,0,0,.39-.26l.23-.16c.12-.1.25-.18.38-.27l.2-.15c.18-.15.37-.27.53-.42s.08-.08.13-.11.28-.23.41-.34a1.62,1.62,0,0,1,.19-.18l.31-.29.19-.2.29-.29a1.57,1.57,0,0,0,.18-.19,4.21,4.21,0,0,1,.36-.37c3.1-3.47,4.56-7.91,4.56-13.06A12,12,0,0,0,706.71,201.22Z" transform="translate(-47.15 -76.5)"/></g><line class="cls-13" x1="651.05" y1="138.69" x2="649.08" y2="138.69"/><path class="cls-13" d="M694.65,215.19H652.37a20.6,20.6,0,0,0,8.41,6.25h32.94a20.8,20.8,0,0,0,9.09-6.25h-3.59" transform="translate(-47.15 -76.5)"/><path class="cls-18" d="M690.37,155.64c-4.24-2.49-8.46,1.83-12.7-.68v5.41c4.24,2,8.46-2.72,12.7-.68A14.13,14.13,0,0,0,687.6,157,7.67,7.67,0,0,1,690.37,155.64Z" transform="translate(-47.15 -76.5)"/><path class="cls-19" d="M680.05,155.74a5.57,5.57,0,0,1-2.37-.78v5.41a5,5,0,0,0,2.37.51Z" transform="translate(-47.15 -76.5)"/><line class="cls-20" x1="630.52" y1="77.43" x2="630.52" y2="133.63"/><path class="cls-21" d="M686.65,206.72H668.71a24,24,0,0,1,0-17.77h17.94A24,24,0,0,0,686.65,206.72Z" transform="translate(-47.15 -76.5)"/><path class="cls-7" d="M679.84,194.06a17.3,17.3,0,0,0-.77-5.11H668.71a24,24,0,0,0,0,17.77h4.77C677.21,204.56,679.84,199.71,679.84,194.06Z" transform="translate(-47.15 -76.5)"/><path class="cls-20" d="M686.65,206.72H668.71a24,24,0,0,1,0-17.77h17.94A24,24,0,0,0,686.65,206.72Z" transform="translate(-47.15 -76.5)"/><path class="cls-21" d="M684.69,186.48h-14a12.83,12.83,0,0,1,0-9.48h14A12.83,12.83,0,0,0,684.69,186.48Z" transform="translate(-47.15 -76.5)"/><path class="cls-7" d="M679.84,179a8.16,8.16,0,0,0-.25-2h-8.91a12.83,12.83,0,0,0,0,9.48h4.06A8.1,8.1,0,0,0,679.84,179Z" transform="translate(-47.15 -76.5)"/><path class="cls-20" d="M684.69,186.48h-14a12.83,12.83,0,0,1,0-9.48h14A12.83,12.83,0,0,0,684.69,186.48Z" transform="translate(-47.15 -76.5)"/><path class="cls-21" d="M682.62,174.52h-9.45a8.13,8.13,0,0,1,0-6h9.45A8.13,8.13,0,0,0,682.62,174.52Z" transform="translate(-47.15 -76.5)"/><path class="cls-7" d="M679.84,168.54h-6.67a8.13,8.13,0,0,0,0,6h2.7A4.69,4.69,0,0,0,679.84,168.54Z" transform="translate(-47.15 -76.5)"/><path class="cls-20" d="M682.62,174.52h-9.45a8.13,8.13,0,0,1,0-6h9.45A8.13,8.13,0,0,0,682.62,174.52Z" transform="translate(-47.15 -76.5)"/><g class="cls-22"><circle class="cls-23" cx="621.85" cy="139.5" r="1.59"/><circle class="cls-20" cx="621.85" cy="139.5" r="1.59"/><circle class="cls-23" cx="629.28" cy="139.5" r="1.59"/><circle class="cls-20" cx="629.28" cy="139.5" r="1.59"/><circle class="cls-23" cx="636.72" cy="139.5" r="1.59"/><circle class="cls-20" cx="636.72" cy="139.5" r="1.59"/><circle class="cls-23" cx="644.16" cy="139.5" r="1.59"/><circle class="cls-20" cx="644.16" cy="139.5" r="1.59"/><circle class="cls-23" cx="614.41" cy="139.5" r="1.59"/><circle class="cls-20" cx="614.41" cy="139.5" r="1.59"/></g><circle class="cls-23" cx="621.53" cy="138.69" r="1.59"/><circle class="cls-20" cx="621.53" cy="138.69" r="1.59"/><circle class="cls-23" cx="628.95" cy="138.69" r="1.59"/><circle class="cls-20" cx="628.95" cy="138.69" r="1.59"/><circle class="cls-23" cx="636.39" cy="138.69" r="1.59"/><circle class="cls-20" cx="636.39" cy="138.69" r="1.59"/><circle class="cls-23" cx="643.84" cy="138.69" r="1.59"/><circle class="cls-20" cx="643.84" cy="138.69" r="1.59"/><circle class="cls-23" cx="614.09" cy="138.69" r="1.59"/><circle class="cls-23" cx="614.09" cy="138.69" r="1.59"/><circle class="cls-20" cx="614.09" cy="138.69" r="1.59"/><circle class="cls-23" cx="652.05" cy="129.03" r="1.59"/><circle class="cls-20" cx="652.05" cy="129.03" r="1.59"/><path class="cls-20" d="M660.78,221.44h32.94c9-3.38,13.07-10,13.07-18.61,0-.53,0-1.08-.07-1.61a100.28,100.28,0,0,1-14.15,1.22,10.81,10.81,0,0,1-10.37,7.71H670.71A5.19,5.19,0,0,1,665.5,205v-.84h-.31a5.21,5.21,0,0,1-5.2-5.21v-2.53a56.4,56.4,0,0,1-11.65-2.89,21.56,21.56,0,0,0-.76,5.64C647.56,209.81,651.75,217.67,660.78,221.44Z" transform="translate(-47.15 -76.5)"/><rect class="cls-24" x="645.41" y="118.29" width="16.19" height="7.65"/><path class="cls-25" d="M692.55,194.79h0a1.52,1.52,0,0,0,1.52,1.52h12.7v4.16a2,2,0,0,0,2,2h0v-7.65Z" transform="translate(-47.15 -76.5)"/><rect class="cls-20" x="645.41" y="118.29" width="16.19" height="7.65"/><path class="cls-26" d="M699.2,202.44h-2.78v-3.21a1.4,1.4,0,0,1,1.39-1.4h0a1.4,1.4,0,0,1,1.39,1.4v3.21Z" transform="translate(-47.15 -76.5)"/><path class="cls-26" d="M704.88,202.44H702.1v-3.21a1.4,1.4,0,0,1,1.39-1.4h0a1.4,1.4,0,0,1,1.39,1.4v3.21Z" transform="translate(-47.15 -76.5)"/><path class="cls-20" d="M699.2,202.44h-2.78v-3.21a1.4,1.4,0,0,1,1.39-1.4h0a1.4,1.4,0,0,1,1.39,1.4v3.21Z" transform="translate(-47.15 -76.5)"/><path class="cls-20" d="M704.88,202.44H702.1v-3.21a1.4,1.4,0,0,1,1.39-1.4h0a1.4,1.4,0,0,1,1.39,1.4v3.21Z" transform="translate(-47.15 -76.5)"/><polygon class="cls-24" points="612.82 118.14 596.24 114.13 595.72 116.33 612.82 120.46 612.82 118.14"/><polygon class="cls-20" points="612.82 118.14 596.24 114.13 595.72 116.33 612.82 120.46 612.82 118.14"/><line class="cls-20" x1="662.6" y1="144.94" x2="663.1" y2="144.94"/><line class="cls-20" x1="657.73" y1="144.94" x2="660.5" y2="144.94"/><line class="cls-20" x1="600.42" y1="144.94" x2="655.65" y2="144.94"/><line class="cls-20" x1="590.42" y1="144.94" x2="597.68" y2="144.94"/><line class="cls-27" x1="653.06" y1="94.41" x2="653.06" y2="118.29"/><path class="cls-21" d="M705.91,191.83H694.49a15.53,15.53,0,0,1,0-11.42h11.42A15.53,15.53,0,0,0,705.91,191.83Z" transform="translate(-47.15 -76.5)"/><path class="cls-7" d="M701.93,182a14.26,14.26,0,0,0-.09-1.62h-7.35a15.53,15.53,0,0,0,0,11.42h2.43A11.52,11.52,0,0,0,701.93,182Z" transform="translate(-47.15 -76.5)"/><path class="cls-21" d="M704.7,178.41h-9a7.83,7.83,0,0,1,0-5.83h9A7.93,7.93,0,0,0,704.7,178.41Z" transform="translate(-47.15 -76.5)"/><path class="cls-7" d="M701.82,172.58h-6.11a7.83,7.83,0,0,0,0,5.83h3.09A8.25,8.25,0,0,0,701.82,172.58Z" transform="translate(-47.15 -76.5)"/><path class="cls-20" d="M705.91,191.83H694.49a15.53,15.53,0,0,1,0-11.42h11.42A15.53,15.53,0,0,0,705.91,191.83Z" transform="translate(-47.15 -76.5)"/><path class="cls-20" d="M704.7,178.41h-9a7.83,7.83,0,0,1,0-5.83h9A7.93,7.93,0,0,0,704.7,178.41Z" transform="translate(-47.15 -76.5)"/><line class="cls-27" x1="606.87" y1="95.48" x2="606.87" y2="116.71"/><path class="cls-21" d="M661.23,189H646.8a19.65,19.65,0,0,1,0-14.43h14.43A19.55,19.55,0,0,0,661.23,189Z" transform="translate(-47.15 -76.5)"/><path class="cls-7" d="M656.26,178.44a10.31,10.31,0,0,0-.79-3.92H646.8a19.65,19.65,0,0,0,0,14.43h1.07C652.75,187.45,656.26,183.31,656.26,178.44Z" transform="translate(-47.15 -76.5)"/><path class="cls-20" d="M661.23,189H646.8a19.65,19.65,0,0,1,0-14.43h14.43A19.55,19.55,0,0,0,661.23,189Z" transform="translate(-47.15 -76.5)"/><line class="cls-20" x1="595.72" y1="115.07" x2="587.54" y2="112.58"/><rect class="cls-26" x="605.07" y="122.72" width="4.5" height="4.5"/><rect class="cls-20" x="605.07" y="122.72" width="4.5" height="4.5"/><path class="cls-28" d="M637.56,190s14.79-10.31,16.46-17.38c6.66,0,23.19-5.37,23.42-8.78,1.41,3.54,8.35,9.8,22.76,7.1" transform="translate(-47.15 -76.5)"/><rect class="cls-24" x="628.63" y="85.86" width="3.35" height="2.88"/><rect class="cls-20" x="628.63" y="85.86" width="3.35" height="2.88"/></g></g><g id="Text"><g id="Sub"><path class="cls-29" d="M118.66,420.65H80.86l-6.24,14.88H50.14l36-84H114l36,84H124.9Zm-31.08-16.2h24.48L99.94,375.17Z" transform="translate(-47.15 -76.5)"/><path class="cls-29" d="M151.42,351.53H175.3a8.67,8.67,0,0,1,.12,2.34v14.58q0,4.68-.06,9.24t-.06,8.64v6.48q-.12,11.76,5.52,17.64t14.76,5.88q9.12,0,14.82-5.88t5.82-17.64V351.53H240.1v42.36a49.15,49.15,0,0,1-3.24,18.48,36.41,36.41,0,0,1-9.12,13.44,39,39,0,0,1-14,8.16,55.75,55.75,0,0,1-18.06,2.76A56.7,56.7,0,0,1,177.46,434a38.28,38.28,0,0,1-14-8.16,35.56,35.56,0,0,1-8.94-13.44,50.84,50.84,0,0,1-3.12-18.48Z" transform="translate(-47.15 -76.5)"/><path class="cls-29" d="M335.62,351.53v20.4h-29v63.6H282.46v-63.6h-29v-20.4Z" transform="translate(-47.15 -76.5)"/><path class="cls-29" d="M371,383.57h38.52v-32h24v84h-24V402.29H371v33.24H347v-84h24Z" transform="translate(-47.15 -76.5)"/><path class="cls-29" d="M495.58,350.33a67.87,67.87,0,0,1,21.18,3.12,49,49,0,0,1,16.32,8.76,38.72,38.72,0,0,1,10.5,13.68,44.25,44.25,0,0,1,0,35.52,38.72,38.72,0,0,1-10.5,13.68,49,49,0,0,1-16.32,8.76,73.45,73.45,0,0,1-42.36,0,49,49,0,0,1-16.32-8.76,38.72,38.72,0,0,1-10.5-13.68,44.25,44.25,0,0,1,0-35.52,38.72,38.72,0,0,1,10.5-13.68,49,49,0,0,1,16.32-8.76A67.87,67.87,0,0,1,495.58,350.33ZM468.7,393.65a22.25,22.25,0,0,0,1.92,9.36,20.5,20.5,0,0,0,5.46,7.2,25.74,25.74,0,0,0,8.52,4.68,36.72,36.72,0,0,0,22,0,25.74,25.74,0,0,0,8.52-4.68,20.5,20.5,0,0,0,5.46-7.2,23.78,23.78,0,0,0,0-18.72,20.5,20.5,0,0,0-5.46-7.2,25.74,25.74,0,0,0-8.52-4.68,36.72,36.72,0,0,0-22,0,25.74,25.74,0,0,0-8.52,4.68,20.5,20.5,0,0,0-5.46,7.2A22.25,22.25,0,0,0,468.7,393.65Z" transform="translate(-47.15 -76.5)"/><path class="cls-29" d="M612.46,435.53l-30.12-36.24v36.24h-24v-84h51a39.12,39.12,0,0,1,12.42,1.86,28.48,28.48,0,0,1,9.54,5.22,22.87,22.87,0,0,1,6.12,8.16,25.44,25.44,0,0,1,2.16,10.56q0,10.56-6.66,17.34t-18.18,8.1L642,435.53Zm-10.32-44.76q6.12,0,9.78-2.82a8.88,8.88,0,0,0,3.66-7.38,9,9,0,0,0-3.54-7.38,14.48,14.48,0,0,0-9.3-2.82h-20.4v20.4Z" transform="translate(-47.15 -76.5)"/><path class="cls-29" d="M652.9,351.53h24v84h-24Z" transform="translate(-47.15 -76.5)"/><path class="cls-29" d="M771,351.53v20.4h-29v63.6H717.82v-63.6h-29v-20.4Z" transform="translate(-47.15 -76.5)"/><path class="cls-29" d="M833.5,401.57v34h-24v-33.6L777,351.53h25.68l18.84,29.76,18.84-29.76H866Z" transform="translate(-47.15 -76.5)"/></g><g id="Main"><path class="cls-30" d="M185.59,294.62H138L47.15,82.56h41.2L162,260.08,235.27,82.56h41.2Z" transform="translate(-47.15 -76.5)"/><path class="cls-30" d="M295.86,95.59a17.71,17.71,0,0,1,6.05-13.48,20.67,20.67,0,0,1,14.55-5.61,21,21,0,0,1,14.84,5.61,18.52,18.52,0,0,1,0,27.41A21.37,21.37,0,0,1,316.46,115a21,21,0,0,1-14.55-5.46A17.89,17.89,0,0,1,295.86,95.59Zm3.33,30a89.65,89.65,0,0,0,17.57,1.82A82.4,82.4,0,0,0,334,125.58v169H299.19Z" transform="translate(-47.15 -76.5)"/><path class="cls-31" d="M442.66,264.23q28.47,0,44.53-8.48t16.06-22.42q0-10.9-12.72-18.32T446.9,200.92q-41.81-8.79-61.49-23.78t-19.69-38.32A47.76,47.76,0,0,1,372.38,114a57.92,57.92,0,0,1,18.93-19.08q12.27-7.87,30-12.12a172,172,0,0,1,39.84-4.24q19.08,0,31.51,2.58A110.6,110.6,0,0,1,512.94,87a45.83,45.83,0,0,1,13.94,8.49v32.71a81.72,81.72,0,0,0-17.27-9.09,141.75,141.75,0,0,0-21.51-6.21,138.91,138.91,0,0,0-28.47-2.57q-24.86,0-40.14,7.42t-15.3,20.15q0,10.6,12.12,17T455.69,167q45.74,9.39,65.74,25.75t20,39.68a51.65,51.65,0,0,1-7,26.51,59.52,59.52,0,0,1-20.14,20.3q-13.18,8.34-31.81,12.87a177.46,177.46,0,0,1-42,4.55q-21.81,0-36.81-3.49a138.84,138.84,0,0,1-24.23-7.57,76.74,76.74,0,0,1-17.42-10.75V239.39q1.51.92,7.57,5a97.62,97.62,0,0,0,16.51,8.48,165.75,165.75,0,0,0,24.69,7.88A134.18,134.18,0,0,0,442.66,264.23Z" transform="translate(-47.15 -76.5)"/><path class="cls-31" d="M675,78.53q27,0,48.77,7.88a112,112,0,0,1,37.56,22.11,95.73,95.73,0,0,1,24.24,34.54q8.48,20.3,8.48,44.83t-8.48,44.84a95.61,95.61,0,0,1-24.24,34.53,111.89,111.89,0,0,1-37.56,22.12Q702,297.26,675,297.25t-48.93-7.87a111.62,111.62,0,0,1-37.71-22.12,95.36,95.36,0,0,1-24.24-34.53q-8.49-20.29-8.48-44.84t8.48-44.83a95.49,95.49,0,0,1,24.24-34.54,111.76,111.76,0,0,1,37.71-22.11Q648.05,78.54,675,78.53ZM594.13,187.89a81.25,81.25,0,0,0,5.76,31.05A67,67,0,0,0,616.4,243,75.2,75.2,0,0,0,642,258.48a102.75,102.75,0,0,0,66,0A73.73,73.73,0,0,0,733.48,243a68.08,68.08,0,0,0,16.36-24.09,81.25,81.25,0,0,0,5.76-31.05,81.28,81.28,0,0,0-5.76-31,68,68,0,0,0-16.36-24.08A73.43,73.43,0,0,0,708,117.31a102.58,102.58,0,0,0-66,0,74.89,74.89,0,0,0-25.6,15.45,66.9,66.9,0,0,0-16.51,24.08A81.28,81.28,0,0,0,594.13,187.89Z" transform="translate(-47.15 -76.5)"/><path class="cls-31" d="M857.08,260.29H984.62v33.33H819.21V81.56h37.87Z" transform="translate(-47.15 -76.5)"/></g></g></svg>