<svg xmlns="http://www.w3.org/2000/svg" xmlns:xlink="http://www.w3.org/1999/xlink" viewBox="0 0 937.47 220.75"><defs><style>.cls-1{fill:#b4d0d8;}.cls-2,.cls-3,.cls-30,.cls-4,.cls-7{fill:#fff;}.cls-2{opacity:0.15;}.cls-12,.cls-14,.cls-19,.cls-2,.cls-3,.cls-30,.cls-34,.cls-4,.cls-48,.cls-49,.cls-51{isolation:isolate;}.cls-3{opacity:0.2;}.cls-4{opacity:0.58;}.cls-5{fill:#25b3b7;}.cls-6{opacity:0.19;}.cls-8{opacity:0.37;}.cls-9{fill:#ce3e4c;}.cls-10{fill:#e5556a;}.cls-11{fill:#bc282f;}.cls-12{fill:#ea8b98;}.cls-12,.cls-19{opacity:0.38;}.cls-13,.cls-14,.cls-20,.cls-27,.cls-28,.cls-36,.cls-37,.cls-38,.cls-39,.cls-40,.cls-43,.cls-50,.cls-53{fill:none;}.cls-13,.cls-14,.cls-20{stroke:#282828;}.cls-13,.cls-14,.cls-20,.cls-27,.cls-36,.cls-37,.cls-38,.cls-39,.cls-40,.cls-43,.cls-50,.cls-53{stroke-linecap:round;stroke-linejoin:round;}.cls-13{stroke-width:0.65px;}.cls-14,.cls-20,.cls-27{stroke-width:0.97px;}.cls-14{opacity:0.22;}.cls-15{fill:#8c1e2e;}.cls-16{opacity:0.25;}.cls-17{fill:#3a121a;}.cls-18{fill:#282828;}.cls-19{fill:#3d3d3d;}.cls-21{fill:#d8d8d9;}.cls-22{opacity:0.28;}.cls-23{fill:#fffff3;}.cls-24{fill:#f9aa68;}.cls-25{fill:#f28d41;}.cls-26{fill:#894532;}.cls-27,.cls-28{stroke:#383838;}.cls-28{stroke-miterlimit:10;stroke-width:0.16px;}.cls-29{fill:#d2faff;}.cls-30{opacity:0.35;}.cls-31{fill:url(#linear-gradient);}.cls-32{fill:#e04d2b;}.cls-33{fill:#ef3f32;}.cls-34{fill:#fa923d;opacity:0.66;}.cls-35{opacity:0.3;}.cls-36{stroke:#b22f22;stroke-width:0.32px;}.cls-37{stroke:#5d1900;}.cls-37,.cls-38,.cls-53{stroke-width:0.97px;}.cls-38,.cls-39,.cls-40,.cls-43,.cls-50{stroke:#3a3736;}.cls-39{stroke-width:0.49px;}.cls-40{stroke-width:0.16px;}.cls-41{fill:#fc3a4d;}.cls-42{fill:#f0fafc;}.cls-43{stroke-width:0.97px;}.cls-44{fill:#3a3736;}.cls-45{fill:#28afaf;}.cls-46{opacity:0.46;}.cls-47,.cls-48{fill:#1c918e;}.cls-48{opacity:0.6;}.cls-49{fill:#188c89;opacity:0.17;}.cls-50{stroke-width:0.65px;}.cls-51{fill:#2d5b72;opacity:0.54;}.cls-52{opacity:0.48;}.cls-53{stroke:#298589;}.cls-54{opacity:0.62;}.cls-55{opacity:0.59;}.cls-56{opacity:0.33;}.cls-57{fill:#4ca6a8;}.cls-58{fill:#071232;}</style><linearGradient id="linear-gradient" x1="672.93" y1="758.32" x2="672.93" y2="806.9" gradientTransform="matrix(1, 0, 0, -1, 0, 1026)" gradientUnits="userSpaceOnUse"><stop offset="0" stop-color="#7fd8e0" stop-opacity="0"/><stop offset="1" stop-color="#7fd8e0"/></linearGradient></defs><g id="Illustration"><g id="Option_2" data-name="Option 2"><rect class="cls-1" x="546.71" y="33.25" width="161.77" height="161.77"/><circle class="cls-2" cx="627.59" cy="114.13" r="66.1"/><circle class="cls-3" cx="627.59" cy="114.13" r="54.26"/><circle class="cls-4" cx="627.59" cy="114.13" r="42.45"/><rect class="cls-5" x="546.71" y="136.78" width="161.77" height="58.24"/><g class="cls-6"><path class="cls-7" d="M704.34,247.79h0a2.64,2.64,0,0,0,2.64-2.64h0a2.64,2.64,0,0,0-2.64-2.63h0a2.63,2.63,0,0,0-2.63,2.63h0A2.64,2.64,0,0,0,704.34,247.79Z" transform="translate(-47.15 -76.5)"/><path class="cls-7" d="M712.63,237.24h5.24a2.64,2.64,0,0,0,2.64-2.63h0a2.64,2.64,0,0,0-2.64-2.64h-5.24a2.64,2.64,0,0,0-2.64,2.64h0A2.64,2.64,0,0,0,712.63,237.24Z" transform="translate(-47.15 -76.5)"/><path class="cls-7" d="M726.38,237.24h0a2.63,2.63,0,0,0,2.63-2.63h0a2.64,2.64,0,0,0-2.63-2.64h0a2.64,2.64,0,0,0-2.64,2.64h0A2.64,2.64,0,0,0,726.38,237.24Z" transform="translate(-47.15 -76.5)"/><path class="cls-7" d="M715.91,224.06h0a2.64,2.64,0,0,0-2.64-2.64H633a2.64,2.64,0,0,0-2.64,2.64h0a2.64,2.64,0,0,0,2.64,2.63h29.44a2.64,2.64,0,0,1,2.64,2.64h0a2.64,2.64,0,0,1-2.64,2.64H641.92a2.64,2.64,0,0,0-2.64,2.64h0a2.64,2.64,0,0,0,2.64,2.63H655.1a2.64,2.64,0,0,1,2.64,2.64h0a2.64,2.64,0,0,1-2.64,2.64H633.47a2.64,2.64,0,0,0-2.64,2.63h0a2.64,2.64,0,0,0,2.64,2.64h27.08a2.64,2.64,0,0,1,2.64,2.64h0a2.64,2.64,0,0,1-2.64,2.63H657a2.64,2.64,0,0,0-2.64,2.64h0a2.64,2.64,0,0,0,2.64,2.64h23.91a2.64,2.64,0,0,0,2.63-2.64h0a2.64,2.64,0,0,0-2.63-2.64h-1.35a2.63,2.63,0,0,1-2.63-2.63h0a2.64,2.64,0,0,1,2.63-2.64h16.68a2.64,2.64,0,0,0,2.64-2.64h0a2.64,2.64,0,0,0-2.64-2.63H686.16a2.64,2.64,0,0,1-2.64-2.64h0a2.64,2.64,0,0,1,2.64-2.64h18a2.64,2.64,0,0,0,2.64-2.63h0a2.64,2.64,0,0,0-2.64-2.64H693.26a2.64,2.64,0,0,1-2.63-2.64h0a2.64,2.64,0,0,1,2.63-2.64h20A2.64,2.64,0,0,0,715.91,224.06Zm-41.64,18.46h-5.34a2.64,2.64,0,0,1-2.64-2.64h0a2.64,2.64,0,0,1,2.64-2.64h5.34a2.64,2.64,0,0,1,2.64,2.64h0A2.64,2.64,0,0,1,674.27,242.52ZM679.8,232h-2.26a2.64,2.64,0,0,1-2.64-2.64h0a2.64,2.64,0,0,1,2.64-2.64h2.26a2.64,2.64,0,0,1,2.64,2.64h0A2.64,2.64,0,0,1,679.8,232Z" transform="translate(-47.15 -76.5)"/><path class="cls-7" d="M649.11,258.34h0a2.64,2.64,0,0,1-2.63-2.64h0a2.64,2.64,0,0,1,2.63-2.64h0a2.64,2.64,0,0,1,2.64,2.64h0A2.64,2.64,0,0,1,649.11,258.34Z" transform="translate(-47.15 -76.5)"/><path class="cls-7" d="M693.41,258.34h0a2.64,2.64,0,0,1-2.64-2.64h0a2.64,2.64,0,0,1,2.64-2.64h0A2.64,2.64,0,0,1,696,255.7h0A2.64,2.64,0,0,1,693.41,258.34Z" transform="translate(-47.15 -76.5)"/></g><g class="cls-8"><path class="cls-7" d="M648.42,226.69h9.48a2.65,2.65,0,0,1,2.64,2.64h0A2.64,2.64,0,0,1,657.9,232h-8.51a2.64,2.64,0,0,0-2.64,2.64h0a2.64,2.64,0,0,0,2.64,2.63h8.38a2.64,2.64,0,0,1,2.64,2.64h0a2.64,2.64,0,0,1-2.64,2.64h-1.15a2.64,2.64,0,0,0-2.64,2.63h0a2.64,2.64,0,0,0,2.64,2.64h6.67a2.64,2.64,0,0,1,2.63,2.64h0a2.63,2.63,0,0,1-2.63,2.63H663a2.64,2.64,0,0,0-2.63,2.64h0a2.64,2.64,0,0,0,2.63,2.64H678.2a2.64,2.64,0,0,0,2.64-2.64h0a2.64,2.64,0,0,0-2.64-2.64h-3.59a2.64,2.64,0,0,1-2.64-2.63h0a2.64,2.64,0,0,1,2.64-2.64H686.4a2.64,2.64,0,0,0,2.64-2.64h0a2.64,2.64,0,0,0-2.64-2.63h-1.86a2.64,2.64,0,0,1-2.63-2.64h0a2.64,2.64,0,0,1,2.63-2.64h1.62a2.64,2.64,0,0,0,2.64-2.63h0a2.64,2.64,0,0,0-2.64-2.64H673.64a2.64,2.64,0,0,1-2.64-2.64h0a2.64,2.64,0,0,1,2.64-2.64h6.5a2.64,2.64,0,0,0,2.64-2.63h0a2.64,2.64,0,0,0-2.64-2.64H648.43a2.64,2.64,0,0,0-2.63,2.64h0A2.61,2.61,0,0,0,648.42,226.69Zm17.5,13.19h0a2.64,2.64,0,0,1,2.64-2.64h4.85a2.64,2.64,0,0,1,2.64,2.64h0a2.64,2.64,0,0,1-2.64,2.64h-4.85A2.64,2.64,0,0,1,665.92,239.88Z" transform="translate(-47.15 -76.5)"/></g><path class="cls-9" d="M660.78,221.44h32.94c9-3.38,13.07-10,13.07-18.61,0-.53,0-1.08-.07-1.61a100.28,100.28,0,0,1-14.15,1.22,10.81,10.81,0,0,1-10.37,7.71H670.71A5.19,5.19,0,0,1,665.5,205v-.84h-.31a5.21,5.21,0,0,1-5.2-5.21v-2.53a56.4,56.4,0,0,1-11.65-2.89,21.56,21.56,0,0,0-.76,5.64C647.56,209.81,651.75,217.67,660.78,221.44Z" transform="translate(-47.15 -76.5)"/><path class="cls-10" d="M660,198.9v-2.52a56.56,56.56,0,0,1-11.65-2.9,22.06,22.06,0,0,0-.76,5.65c0,.71,0,1.39.05,2.09l15.29,2.39A5.27,5.27,0,0,1,660,198.9Z" transform="translate(-47.15 -76.5)"/><path class="cls-11" d="M686.63,209.19a10.6,10.6,0,0,1-4.43.94H670.71a5.37,5.37,0,0,1-3-.94H649.11a20,20,0,0,0,11.67,12.25h32.94c6.63-2.49,10.58-6.75,12.19-12.25Z" transform="translate(-47.15 -76.5)"/><path class="cls-12" d="M658.29,196.38v2.76A5.86,5.86,0,0,0,664,205h.34v.76a5.69,5.69,0,0,0,5.71,5.7h12.62A11.84,11.84,0,0,0,694,203a113.18,113.18,0,0,0,12.7-.94c0-.29,0-.59,0-.88a100.29,100.29,0,0,1-14.16,1.22,10.79,10.79,0,0,1-10.37,7.71H670.68a5.19,5.19,0,0,1-5.21-5.18v-.84h-.31a5.22,5.22,0,0,1-5.21-5.21v-2.53a56.31,56.31,0,0,1-11.64-2.89c-.07.21-.12.42-.17.63A68.56,68.56,0,0,0,658.29,196.38Z" transform="translate(-47.15 -76.5)"/><path class="cls-13" d="M660,198.9v-2.52a56.56,56.56,0,0,1-11.65-2.9,22.06,22.06,0,0,0-.76,5.65c0,.71,0,1.39.05,2.09l15.29,2.39A5.27,5.27,0,0,1,660,198.9Z" transform="translate(-47.15 -76.5)"/><rect class="cls-14" x="605.67" y="123.53" width="4.5" height="4.5"/><path class="cls-13" d="M698.52,209.19H686.61a10.57,10.57,0,0,1-4.43.94H670.69a5.34,5.34,0,0,1-3-.94h-7" transform="translate(-47.15 -76.5)"/><path class="cls-13" d="M659.18,209.19H649.11a20,20,0,0,0,11.67,12.25h32.94c6.63-2.49,10.58-6.75,12.19-12.25H700" transform="translate(-47.15 -76.5)"/><path class="cls-15" d="M652.37,215.19a20.6,20.6,0,0,0,8.41,6.25h32.94a20.8,20.8,0,0,0,9.09-6.25Z" transform="translate(-47.15 -76.5)"/><g class="cls-16"><path class="cls-17" d="M706.71,201.22c-.86.14-1.75.25-2.62.37,0,.35,0,.73,0,1.08H694a1.89,1.89,0,0,0,1.89,1.89h8.19a18.12,18.12,0,0,1-6,12.77,11.29,11.29,0,0,1-7.62,2.52H664.73a11.18,11.18,0,0,1-6.15-1.44c-6.67-4.19-9.79-11.32-9.79-20.56,0-.21.16-1.28.26-1.88a.37.37,0,0,1,.47-.3l7.44,1.81a1.49,1.49,0,0,0,1.62-.67c0-.06.06-.09.06-.12.07-.51-9.54-2.43-9.44-2.92-.3-.09-.59-.21-.86-.3a21.56,21.56,0,0,0-.76,5.64c0,10.7,4.17,18.56,13.2,22.33h32.94l.76-.31.24-.1a3.78,3.78,0,0,0,.5-.22l.26-.12.47-.22.24-.12c.18-.09.36-.17.53-.27l.15-.08c.23-.12.44-.25.65-.37l.19-.12.45-.27a1.53,1.53,0,0,0,.23-.15,4.4,4.4,0,0,0,.39-.26l.23-.16c.12-.1.25-.18.38-.27l.2-.15c.18-.15.37-.27.53-.42s.08-.08.13-.11.28-.23.41-.34a1.62,1.62,0,0,1,.19-.18l.31-.29.19-.2.29-.29a1.57,1.57,0,0,0,.18-.19,4.21,4.21,0,0,1,.36-.37c3.1-3.47,4.56-7.91,4.56-13.06A12,12,0,0,0,706.71,201.22Z" transform="translate(-47.15 -76.5)"/></g><line class="cls-13" x1="651.05" y1="138.69" x2="649.08" y2="138.69"/><path class="cls-13" d="M694.65,215.19H652.37a20.6,20.6,0,0,0,8.41,6.25h32.94a20.8,20.8,0,0,0,9.09-6.25h-3.59" transform="translate(-47.15 -76.5)"/><path class="cls-18" d="M690.37,155.64c-4.24-2.49-8.46,1.83-12.7-.68v5.41c4.24,2,8.46-2.72,12.7-.68A14.13,14.13,0,0,0,687.6,157,7.67,7.67,0,0,1,690.37,155.64Z" transform="translate(-47.15 -76.5)"/><path class="cls-19" d="M680.05,155.74a5.57,5.57,0,0,1-2.37-.78v5.41a5,5,0,0,0,2.37.51Z" transform="translate(-47.15 -76.5)"/><line class="cls-20" x1="630.52" y1="77.43" x2="630.52" y2="133.63"/><path class="cls-21" d="M686.65,206.72H668.71a24,24,0,0,1,0-17.77h17.94A24,24,0,0,0,686.65,206.72Z" transform="translate(-47.15 -76.5)"/><path class="cls-7" d="M679.84,194.06a17.3,17.3,0,0,0-.77-5.11H668.71a24,24,0,0,0,0,17.77h4.77C677.21,204.56,679.84,199.71,679.84,194.06Z" transform="translate(-47.15 -76.5)"/><path class="cls-20" d="M686.65,206.72H668.71a24,24,0,0,1,0-17.77h17.94A24,24,0,0,0,686.65,206.72Z" transform="translate(-47.15 -76.5)"/><path class="cls-21" d="M684.69,186.48h-14a12.83,12.83,0,0,1,0-9.48h14A12.83,12.83,0,0,0,684.69,186.48Z" transform="translate(-47.15 -76.5)"/><path class="cls-7" d="M679.84,179a8.16,8.16,0,0,0-.25-2h-8.91a12.83,12.83,0,0,0,0,9.48h4.06A8.1,8.1,0,0,0,679.84,179Z" transform="translate(-47.15 -76.5)"/><path class="cls-20" d="M684.69,186.48h-14a12.83,12.83,0,0,1,0-9.48h14A12.83,12.83,0,0,0,684.69,186.48Z" transform="translate(-47.15 -76.5)"/><path class="cls-21" d="M682.62,174.52h-9.45a8.13,8.13,0,0,1,0-6h9.45A8.13,8.13,0,0,0,682.62,174.52Z" transform="translate(-47.15 -76.5)"/><path class="cls-7" d="M679.84,168.54h-6.67a8.13,8.13,0,0,0,0,6h2.7A4.69,4.69,0,0,0,679.84,168.54Z" transform="translate(-47.15 -76.5)"/><path class="cls-20" d="M682.62,174.52h-9.45a8.13,8.13,0,0,1,0-6h9.45A8.13,8.13,0,0,0,682.62,174.52Z" transform="translate(-47.15 -76.5)"/><g class="cls-22"><circle class="cls-23" cx="621.85" cy="139.5" r="1.59"/><circle class="cls-20" cx="621.85" cy="139.5" r="1.59"/><circle class="cls-23" cx="629.28" cy="139.5" r="1.59"/><circle class="cls-20" cx="629.28" cy="139.5" r="1.59"/><circle class="cls-23" cx="636.72" cy="139.5" r="1.59"/><circle class="cls-20" cx="636.72" cy="139.5" r="1.59"/><circle class="cls-23" cx="644.16" cy="139.5" r="1.59"/><circle class="cls-20" cx="644.16" cy="139.5" r="1.59"/><circle class="cls-23" cx="614.41" cy="139.5" r="1.59"/><circle class="cls-20" cx="614.41" cy="139.5" r="1.59"/></g><circle class="cls-23" cx="621.53" cy="138.69" r="1.59"/><circle class="cls-20" cx="621.53" cy="138.69" r="1.59"/><circle class="cls-23" cx="628.95" cy="138.69" r="1.59"/><circle class="cls-20" cx="628.95" cy="138.69" r="1.59"/><circle class="cls-23" cx="636.39" cy="138.69" r="1.59"/><circle class="cls-20" cx="636.39" cy="138.69" r="1.59"/><circle class="cls-23" cx="643.84" cy="138.69" r="1.59"/><circle class="cls-20" cx="643.84" cy="138.69" r="1.59"/><circle class="cls-23" cx="614.09" cy="138.69" r="1.59"/><circle class="cls-23" cx="614.09" cy="138.69" r="1.59"/><circle class="cls-20" cx="614.09" cy="138.69" r="1.59"/><circle class="cls-23" cx="652.05" cy="129.03" r="1.59"/><circle class="cls-20" cx="652.05" cy="129.03" r="1.59"/><path class="cls-20" d="M660.78,221.44h32.94c9-3.38,13.07-10,13.07-18.61,0-.53,0-1.08-.07-1.61a100.28,100.28,0,0,1-14.15,1.22,10.81,10.81,0,0,1-10.37,7.71H670.71A5.19,5.19,0,0,1,665.5,205v-.84h-.31a5.21,5.21,0,0,1-5.2-5.21v-2.53a56.4,56.4,0,0,1-11.65-2.89,21.56,21.56,0,0,0-.76,5.64C647.56,209.81,651.75,217.67,660.78,221.44Z" transform="translate(-47.15 -76.5)"/><rect class="cls-24" x="645.41" y="118.29" width="16.19" height="7.65"/><path class="cls-25" d="M692.55,194.79h0a1.52,1.52,0,0,0,1.52,1.52h12.7v4.16a2,2,0,0,0,2,2h0v-7.65Z" transform="translate(-47.15 -76.5)"/><rect class="cls-20" x="645.41" y="118.29" width="16.19" height="7.65"/><path class="cls-26" d="M699.2,202.44h-2.78v-3.21a1.4,1.4,0,0,1,1.39-1.4h0a1.4,1.4,0,0,1,1.39,1.4v3.21Z" transform="translate(-47.15 -76.5)"/><path class="cls-26" d="M704.88,202.44H702.1v-3.21a1.4,1.4,0,0,1,1.39-1.4h0a1.4,1.4,0,0,1,1.39,1.4v3.21Z" transform="translate(-47.15 -76.5)"/><path class="cls-20" d="M699.2,202.44h-2.78v-3.21a1.4,1.4,0,0,1,1.39-1.4h0a1.4,1.4,0,0,1,1.39,1.4v3.21Z" transform="translate(-47.15 -76.5)"/><path class="cls-20" d="M704.88,202.44H702.1v-3.21a1.4,1.4,0,0,1,1.39-1.4h0a1.4,1.4,0,0,1,1.39,1.4v3.21Z" transform="translate(-47.15 -76.5)"/><polygon class="cls-24" points="612.82 118.14 596.24 114.13 595.72 116.33 612.82 120.46 612.82 118.14"/><polygon class="cls-20" points="612.82 118.14 596.24 114.13 595.72 116.33 612.82 120.46 612.82 118.14"/><line class="cls-20" x1="662.6" y1="144.94" x2="663.1" y2="144.94"/><line class="cls-20" x1="657.73" y1="144.94" x2="660.5" y2="144.94"/><line class="cls-20" x1="600.42" y1="144.94" x2="655.65" y2="144.94"/><line class="cls-20" x1="590.42" y1="144.94" x2="597.68" y2="144.94"/><line class="cls-27" x1="653.06" y1="94.41" x2="653.06" y2="118.29"/><path class="cls-21" d="M705.91,191.83H694.49a15.53,15.53,0,0,1,0-11.42h11.42A15.53,15.53,0,0,0,705.91,191.83Z" transform="translate(-47.15 -76.5)"/><path class="cls-7" d="M701.93,182a14.26,14.26,0,0,0-.09-1.62h-7.35a15.53,15.53,0,0,0,0,11.42h2.43A11.52,11.52,0,0,0,701.93,182Z" transform="translate(-47.15 -76.5)"/><path class="cls-21" d="M704.7,178.41h-9a7.83,7.83,0,0,1,0-5.83h9A7.93,7.93,0,0,0,704.7,178.41Z" transform="translate(-47.15 -76.5)"/><path class="cls-7" d="M701.82,172.58h-6.11a7.83,7.83,0,0,0,0,5.83h3.09A8.25,8.25,0,0,0,701.82,172.58Z" transform="translate(-47.15 -76.5)"/><path class="cls-20" d="M705.91,191.83H694.49a15.53,15.53,0,0,1,0-11.42h11.42A15.53,15.53,0,0,0,705.91,191.83Z" transform="translate(-47.15 -76.5)"/><path class="cls-20" d="M704.7,178.41h-9a7.83,7.83,0,0,1,0-5.83h9A7.93,7.93,0,0,0,704.7,178.41Z" transform="translate(-47.15 -76.5)"/><line class="cls-27" x1="606.87" y1="95.48" x2="606.87" y2="116.71"/><path class="cls-21" d="M661.23,189H646.8a19.65,19.65,0,0,1,0-14.43h14.43A19.55,19.55,0,0,0,661.23,189Z" transform="translate(-47.15 -76.5)"/><path class="cls-7" d="M656.26,178.44a10.31,10.31,0,0,0-.79-3.92H646.8a19.65,19.65,0,0,0,0,14.43h1.07C652.75,187.45,656.26,183.31,656.26,178.44Z" transform="translate(-47.15 -76.5)"/><path class="cls-20" d="M661.23,189H646.8a19.65,19.65,0,0,1,0-14.43h14.43A19.55,19.55,0,0,0,661.23,189Z" transform="translate(-47.15 -76.5)"/><line class="cls-20" x1="595.72" y1="115.07" x2="587.54" y2="112.58"/><rect class="cls-26" x="605.07" y="122.72" width="4.5" height="4.5"/><rect class="cls-20" x="605.07" y="122.72" width="4.5" height="4.5"/><path class="cls-28" d="M637.56,190s14.79-10.31,16.46-17.38c6.66,0,23.19-5.37,23.42-8.78,1.41,3.54,8.35,9.8,22.76,7.1" transform="translate(-47.15 -76.5)"/><rect class="cls-24" x="628.63" y="85.86" width="3.35" height="2.88"/><rect class="cls-20" x="628.63" y="85.86" width="3.35" height="2.88"/></g><g id="Option_1" data-name="Option 1"><rect class="cls-29" x="546.75" y="30.67" width="161.73" height="161.73"/><circle class="cls-30" cx="627.62" cy="111.54" r="49.93"/><circle class="cls-2" cx="627.62" cy="111.54" r="60.81"/><circle class="cls-3" cx="627.62" cy="111.54" r="49.93"/><circle class="cls-7" cx="627.62" cy="111.54" r="36.19"/><path class="cls-31" d="M731.74,220h0a3.45,3.45,0,0,0-3.45-3.44H617.56a3.44,3.44,0,0,0-3.44,3.44h0a3.45,3.45,0,0,0,3.44,3.45H634.9a3.44,3.44,0,0,1,3.44,3.44h0a3.45,3.45,0,0,1-3.44,3.45h-4.22a3.44,3.44,0,0,0-3.45,3.44h0a3.46,3.46,0,0,0,3.45,3.45H648a3.44,3.44,0,0,1,3.44,3.44h0A3.45,3.45,0,0,1,648,244.1h-3.56a3.44,3.44,0,0,0-3.44,3.44h0a3.44,3.44,0,0,0,3.44,3.44H701.4a3.44,3.44,0,0,0,3.44-3.44h0a3.44,3.44,0,0,0-3.44-3.44h-3.56a3.45,3.45,0,0,1-3.44-3.45h0a3.44,3.44,0,0,1,3.44-3.44h17.35a3.45,3.45,0,0,0,3.45-3.45h0a3.45,3.45,0,0,0-3.45-3.44H711a3.45,3.45,0,0,1-3.44-3.45h0a3.45,3.45,0,0,1,3.44-3.44h17.34A3.45,3.45,0,0,0,731.74,220Z" transform="translate(-47.15 -76.5)"/><path class="cls-32" d="M699.51,197.42a42.1,42.1,0,0,0,14.8-1.33,9,9,0,0,1-.31-5.88c-1.39-.1-1.46-3.69-1.07-5.47-2-.79-3.38-1.79-3.62-3.22a3.56,3.56,0,0,1-2.88-2.55,37.79,37.79,0,0,1-6.73,7.63Z" transform="translate(-47.15 -76.5)"/><path class="cls-33" d="M670.64,153.32v7.28c1-1.28,2.52-2.87,4.12-2.64,1.43.21,1.81,1.7,3,1.92s2.84-.59,5.74-5.51c-2.78,2-4.32,2-5.19,1.63-1.67-.77-1.47-3.22-3.19-4C673.74,151.44,672,152.38,670.64,153.32Z" transform="translate(-47.15 -76.5)"/><path class="cls-32" d="M696.26,198.46a208.13,208.13,0,0,1-40.11-3.64c2.8-10.16,2.54-24.88,2.54-24.88,19.47-2,28.43-7.36,28.43-7.36s1.28,5.6,5.92,8.48c-.79,4.17.56,7.07,3.22,10.35-2.35,2.34.13,6.91,1.31,8.09C695.14,191.92,694.57,196.77,696.26,198.46Z" transform="translate(-47.15 -76.5)"/><path class="cls-34" d="M670.85,197.1c9.95-2.72,12.68-8.62,12.68-17.65a31.83,31.83,0,0,0-3.74-13.79A100.39,100.39,0,0,1,658.7,170s.26,14.72-2.54,24.87C661.16,195.84,666.16,196.56,670.85,197.1Z" transform="translate(-47.15 -76.5)"/><g class="cls-35"><path class="cls-36" d="M663,169.56a70,70,0,0,1-3,26" transform="translate(-47.15 -76.5)"/><path class="cls-36" d="M667.18,168.76a94.23,94.23,0,0,1-3.75,27.35" transform="translate(-47.15 -76.5)"/><path class="cls-36" d="M671.29,168s-1,17.18-4.35,28.66" transform="translate(-47.15 -76.5)"/><path class="cls-36" d="M675.8,166.84S674,186.55,670.4,197" transform="translate(-47.15 -76.5)"/><path class="cls-36" d="M680.37,165.64s-3,22.43-6.35,31.78" transform="translate(-47.15 -76.5)"/><path class="cls-36" d="M685.37,163.6s-4.77,26.09-7.81,34.32" transform="translate(-47.15 -76.5)"/><path class="cls-36" d="M689,167s-5,23.85-7.78,30.95" transform="translate(-47.15 -76.5)"/><path class="cls-36" d="M693,171.06s-5.69,21.43-8.22,27.4" transform="translate(-47.15 -76.5)"/><path class="cls-36" d="M694.8,179.44s-3.9,14.18-6.14,19" transform="translate(-47.15 -76.5)"/><path class="cls-36" d="M696.26,187.56s-1.75,7.19-3.72,10.91" transform="translate(-47.15 -76.5)"/></g><path class="cls-37" d="M696.26,198.46a208.13,208.13,0,0,1-40.11-3.64c2.8-10.16,2.54-24.88,2.54-24.88,19.47-2,28.43-7.36,28.43-7.36" transform="translate(-47.15 -76.5)"/><path class="cls-38" d="M696.26,198.46a208.13,208.13,0,0,1-40.11-3.64c2.8-10.16,2.54-24.88,2.54-24.88,19.47-2,28.43-7.36,28.43-7.36s1.28,5.6,5.92,8.48c-.79,4.17.56,7.07,3.22,10.35-2.35,2.34.13,6.91,1.31,8.09C695.14,191.92,694.57,196.77,696.26,198.46Z" transform="translate(-47.15 -76.5)"/><path class="cls-39" d="M693,171.06c-14.88,5.5-34.5,6.11-34.5,6.11" transform="translate(-47.15 -76.5)"/><line class="cls-40" x1="623.23" y1="87.1" x2="645.67" y2="126.77"/><line class="cls-40" x1="622.3" y1="108.26" x2="604.91" y2="132.84"/><line class="cls-40" x1="622.7" y1="100.88" x2="593.25" y2="129.88"/><line class="cls-40" x1="623.49" y1="84.09" x2="653.74" y2="125.9"/><path class="cls-38" d="M670.35,152s1.86,40.67-8.07,58.69" transform="translate(-47.15 -76.5)"/><polygon class="cls-41" points="643.87 129.43 608.42 129.88 613.45 127.53 638.78 127.21 643.87 129.43"/><polygon class="cls-38" points="643.87 129.43 608.42 129.88 613.45 127.53 638.78 127.21 643.87 129.43"/><rect class="cls-42" x="658.27" y="206.15" width="30.11" height="4.77" transform="translate(-49.74 -67.94) rotate(-0.73)"/><rect class="cls-43" x="658.27" y="206.15" width="30.11" height="4.77" transform="translate(-49.74 -67.94) rotate(-0.73)"/><rect class="cls-43" x="670.86" y="208.04" width="4.9" height="2.83" transform="translate(-49.75 -67.94) rotate(-0.73)"/><polyline class="cls-38" points="623.74 134.39 623.7 131.58 628.6 131.51 628.65 134.34"/><rect class="cls-44" x="670.86" y="208.04" width="4.9" height="2.83" transform="translate(-49.75 -67.94) rotate(-0.73)"/><polyline class="cls-44" points="623.74 134.39 623.7 131.58 628.6 131.51 628.65 134.34"/><rect class="cls-43" x="662.5" y="208.14" width="4.9" height="2.83" transform="translate(-49.75 -68.05) rotate(-0.73)"/><polyline class="cls-38" points="615.37 134.49 615.34 131.67 620.24 131.61 620.27 134.44"/><rect class="cls-44" x="662.5" y="208.14" width="4.9" height="2.83" transform="translate(-49.75 -68.05) rotate(-0.73)"/><polyline class="cls-44" points="615.37 134.49 615.34 131.67 620.24 131.61 620.27 134.44"/><rect class="cls-43" x="679.26" y="207.93" width="4.9" height="2.83" transform="translate(-49.75 -67.84) rotate(-0.73)"/><polyline class="cls-38" points="632.13 134.28 632.1 131.45 637 131.4 637.03 134.21"/><rect class="cls-44" x="679.26" y="207.93" width="4.9" height="2.83" transform="translate(-49.75 -67.84) rotate(-0.73)"/><polyline class="cls-44" points="632.13 134.28 632.1 131.45 637 131.4 637.03 134.21"/><path class="cls-39" d="M696.26,181.41c-12.63,2.26-37.72,1.76-37.72,1.76" transform="translate(-47.15 -76.5)"/><path class="cls-39" d="M657.54,188c1.18,1.18,34.53,3.07,40,1.46" transform="translate(-47.15 -76.5)"/><path class="cls-45" d="M709.21,208.29a90.93,90.93,0,0,1,2.49-9.85,29.56,29.56,0,0,1-12.48,4.2c-2.17.31-4.32.52-6.41.62-1.94,3-3.57,5.17-15.09,6.81-9.28,1.32-26.8,1.42-39.8-4.56,3.24,8.13,9.49,13.44,16,14.84H693C693.05,214.48,701.59,209.55,709.21,208.29Z" transform="translate(-47.15 -76.5)"/><g class="cls-46"><path class="cls-47" d="M642.85,207.46a45.77,45.77,0,0,1-4.93-1.92c0,.08.07.18.11.26A50.65,50.65,0,0,0,642.85,207.46Z" transform="translate(-47.15 -76.5)"/><path class="cls-48" d="M709.4,199.7c-.77,2.62-1.08,4.51-1.73,7.25-7.61,1.26-16.33,7-16.35,12.9H652.19c-.2,0-.39-.08-.59-.14a21.2,21.2,0,0,0,2.32.68h39.13c0-5.91,8.56-10.84,16.18-12.1a90.93,90.93,0,0,1,2.49-9.85C710.89,198.92,710.13,199.33,709.4,199.7Z" transform="translate(-47.15 -76.5)"/></g><path class="cls-49" d="M709.73,206a208.54,208.54,0,0,1-33.93,4.88c-.58.1,2.57-.84,1.92-.74-9.28,1.33-26.8,1.42-39.8-4.56,3.24,8.13,9.49,13.44,16,14.85H693c0-5.91,8.55-10.84,16.17-12.1.18-.78.36-1.55.52-2.33Z" transform="translate(-47.15 -76.5)"/><path class="cls-50" d="M654.72,211.59c-8.19-1.23-14.55-3.54-16.8-6.05,3.24,8.13,9.49,13.44,16,14.85H693c0-5.91,8.55-10.84,16.17-12.1.18-.78.36-1.55.52-2.33h0c-15.72,3.59-28.85,5.82-36.41,6.39a88.19,88.19,0,0,1-17.16-.57" transform="translate(-47.15 -76.5)"/><path class="cls-51" d="M679.52,216.16c-14.09.91-27.42.62-37.07-3a21.25,21.25,0,0,0,11.45,7.23H693c0-2.32,1.32-4.48,3.38-6.33A138.08,138.08,0,0,1,679.52,216.16Z" transform="translate(-47.15 -76.5)"/><path class="cls-50" d="M678.42,216.23c-6,.34-13.6.37-18.94.13" transform="translate(-47.15 -76.5)"/><path class="cls-50" d="M682.8,215.94c-.89.08-2.09.14-3,.21" transform="translate(-47.15 -76.5)"/><path class="cls-50" d="M658.23,216.28a58.63,58.63,0,0,1-15.78-3.12,21.25,21.25,0,0,0,11.45,7.23H693c0-2.32,1.32-4.48,3.38-6.33-3.9.75-8,1.33-12.24,1.73" transform="translate(-47.15 -76.5)"/><path class="cls-38" d="M709.21,208.29a90.93,90.93,0,0,1,2.49-9.85,29.56,29.56,0,0,1-12.48,4.2c-2.17.31-4.32.52-6.41.62-1.94,3-3.57,5.17-15.09,6.81-9.28,1.32-26.8,1.42-39.8-4.56,3.24,8.13,9.49,13.44,16,14.84H693C693.05,214.48,701.59,209.55,709.21,208.29Z" transform="translate(-47.15 -76.5)"/><path class="cls-32" d="M643.68,203.34h11.89a3.9,3.9,0,0,1-.76-4.88c-1.88-1-2.27-4.05-1.33-5a4.3,4.3,0,0,1-2.22-1.74,6.67,6.67,0,0,1-.71-5.13c-4.74.2-5.9-2.75-5.9-2.75l-7.08,5.47S643.68,194.87,643.68,203.34Z" transform="translate(-47.15 -76.5)"/><path class="cls-34" d="M649.36,203.34a24.17,24.17,0,0,0,.16-2.59c0-7.42-3.74-13.5-8.51-14.1l-3.46,2.67s6.13,5.55,6.13,14Z" transform="translate(-47.15 -76.5)"/><g class="cls-35"><path class="cls-36" d="M639.22,188s7.68,7,7.89,15.3" transform="translate(-47.15 -76.5)"/><path class="cls-36" d="M641,186.65s7.73,5.21,9.53,16.63" transform="translate(-47.15 -76.5)"/><path class="cls-36" d="M642.85,185.23s8.74,5.54,10.61,18.13" transform="translate(-47.15 -76.5)"/></g><path class="cls-38" d="M643.68,203.34h11.89a3.9,3.9,0,0,1-.76-4.88c-1.88-1-2.27-4.05-1.33-5a4.3,4.3,0,0,1-2.22-1.74,6.67,6.67,0,0,1-.71-5.13c-4.74.2-5.9-2.75-5.9-2.75l-7.08,5.47S643.68,194.87,643.68,203.34Z" transform="translate(-47.15 -76.5)"/><path class="cls-34" d="M706.78,197.44a10.86,10.86,0,0,0,1.54-5.68,10,10,0,0,0-4.87-8.91c-1.13,1.24-2.42,2.51-3.75,3.75l-.19,10.82A40.12,40.12,0,0,0,706.78,197.44Z" transform="translate(-47.15 -76.5)"/><g class="cls-35"><path class="cls-36" d="M700.88,185.49s1.51,8.76.49,12" transform="translate(-47.15 -76.5)"/><path class="cls-36" d="M704.83,181.25a26,26,0,0,1,6.87,15.36" transform="translate(-47.15 -76.5)"/><path class="cls-36" d="M702.05,184.34a31.66,31.66,0,0,1,2.78,13.26" transform="translate(-47.15 -76.5)"/><path class="cls-36" d="M703.45,182.85a39.8,39.8,0,0,1,5.1,14.39" transform="translate(-47.15 -76.5)"/></g><path class="cls-39" d="M699.51,197.42a42.1,42.1,0,0,0,14.8-1.33,9,9,0,0,1-.31-5.88c-1.39-.1-1.46-3.69-1.07-5.47-2-.79-3.38-1.79-3.62-3.22a3.56,3.56,0,0,1-2.88-2.55,37.79,37.79,0,0,1-6.73,7.63Z" transform="translate(-47.15 -76.5)"/><path class="cls-39" d="M699.64,188.28a47.83,47.83,0,0,0,9.67-6.74" transform="translate(-47.15 -76.5)"/><line class="cls-38" x1="661.18" y1="143.88" x2="661.61" y2="143.88"/><line class="cls-38" x1="654.9" y1="143.88" x2="658.56" y2="143.88"/><line class="cls-38" x1="590.99" y1="143.88" x2="652.07" y2="143.88"/><line class="cls-38" x1="585.55" y1="143.88" x2="587.51" y2="143.88"/><g class="cls-52"><line class="cls-53" x1="642.61" y1="146.39" x2="646.1" y2="146.39"/><line class="cls-53" x1="634.31" y1="146.39" x2="640.25" y2="146.39"/></g><line class="cls-38" x1="625.71" y1="150.92" x2="626.95" y2="150.92"/><line class="cls-38" x1="619.81" y1="150.92" x2="623.69" y2="150.92"/><path class="cls-38" d="M639.31,184.76s8.35,11.35,6.2,23.5" transform="translate(-47.15 -76.5)"/><line class="cls-39" x1="592.86" y1="115.74" x2="603.37" y2="110.1"/><line class="cls-39" x1="595.01" y1="119.61" x2="606.32" y2="116.99"/><line class="cls-39" x1="596.39" y1="123.49" x2="607.51" y2="122.2"/><g class="cls-54"><line class="cls-38" x1="624.61" y1="146.39" x2="625.16" y2="146.39"/><line class="cls-38" x1="620.27" y1="146.39" x2="622.6" y2="146.39"/><line class="cls-38" x1="604.91" y1="146.39" x2="617.82" y2="146.39"/><line class="cls-38" x1="602.36" y1="146.39" x2="602.86" y2="146.39"/></g><line class="cls-38" x1="640.41" y1="152.75" x2="652.04" y2="152.75"/><line class="cls-38" x1="636.4" y1="152.75" x2="638.4" y2="152.75"/><line class="cls-38" x1="633.2" y1="152.75" x2="634.04" y2="152.75"/><g class="cls-55"><line class="cls-38" x1="622.38" y1="155.17" x2="624.38" y2="155.17"/><line class="cls-38" x1="610.46" y1="155.17" x2="620.37" y2="155.17"/></g><g class="cls-55"><line class="cls-38" x1="637.61" y1="161.42" x2="639.62" y2="161.42"/><line class="cls-38" x1="630.85" y1="161.42" x2="635.61" y2="161.42"/></g><g class="cls-55"><line class="cls-38" x1="619.14" y1="161.42" x2="620.23" y2="161.42"/><line class="cls-38" x1="614.84" y1="161.42" x2="617.43" y2="161.42"/></g><g class="cls-56"><line class="cls-38" x1="624.75" y1="167.64" x2="628.65" y2="167.64"/><line class="cls-38" x1="611.65" y1="167.64" x2="620.86" y2="167.64"/></g><path class="cls-39" d="M704.83,204.37a13.85,13.85,0,0,0,3.7-1.11" transform="translate(-47.15 -76.5)"/><path class="cls-39" d="M694.4,206a78.52,78.52,0,0,0,8.79-1.2" transform="translate(-47.15 -76.5)"/><path class="cls-39" d="M699.64,194.8c5.4,0,11.25-1.78,14.36-4.58" transform="translate(-47.15 -76.5)"/><path class="cls-39" d="M699.51,192.05a33,33,0,0,0,13.42-7.31" transform="translate(-47.15 -76.5)"/><path class="cls-38" d="M703,181.94s-1.37,11.55-.82,20.24" transform="translate(-47.15 -76.5)"/></g></g><g id="Text"><g id="Main"><path class="cls-57" d="M185.59,294.62H138L47.15,82.56h41.2L162,260.08,235.27,82.56h41.2Z" transform="translate(-47.15 -76.5)"/><path class="cls-57" d="M295.86,95.59a17.71,17.71,0,0,1,6.05-13.48,20.67,20.67,0,0,1,14.55-5.61,21,21,0,0,1,14.84,5.61,18.52,18.52,0,0,1,0,27.41A21.37,21.37,0,0,1,316.46,115a21,21,0,0,1-14.55-5.46A17.89,17.89,0,0,1,295.86,95.59Zm3.33,30a89.65,89.65,0,0,0,17.57,1.82A82.4,82.4,0,0,0,334,125.58v169H299.19Z" transform="translate(-47.15 -76.5)"/><path class="cls-58" d="M442.66,264.23q28.47,0,44.53-8.48t16.06-22.42q0-10.9-12.72-18.32T446.9,200.92q-41.81-8.79-61.49-23.78t-19.69-38.32A47.76,47.76,0,0,1,372.38,114a57.92,57.92,0,0,1,18.93-19.08q12.27-7.87,30-12.12a172,172,0,0,1,39.84-4.24q19.08,0,31.51,2.58A110.6,110.6,0,0,1,512.94,87a45.83,45.83,0,0,1,13.94,8.49v32.71a81.72,81.72,0,0,0-17.27-9.09,141.75,141.75,0,0,0-21.51-6.21,138.91,138.91,0,0,0-28.47-2.57q-24.86,0-40.14,7.42t-15.3,20.15q0,10.6,12.12,17T455.69,167q45.74,9.39,65.74,25.75t20,39.68a51.65,51.65,0,0,1-7,26.51,59.52,59.52,0,0,1-20.14,20.3q-13.18,8.34-31.81,12.87a177.46,177.46,0,0,1-42,4.55q-21.81,0-36.81-3.49a138.84,138.84,0,0,1-24.23-7.57,76.74,76.74,0,0,1-17.42-10.75V239.39q1.51.92,7.57,5a97.62,97.62,0,0,0,16.51,8.48,165.75,165.75,0,0,0,24.69,7.88A134.18,134.18,0,0,0,442.66,264.23Z" transform="translate(-47.15 -76.5)"/><path class="cls-58" d="M675,78.53q27,0,48.77,7.88a112,112,0,0,1,37.56,22.11,95.73,95.73,0,0,1,24.24,34.54q8.48,20.3,8.48,44.83t-8.48,44.84a95.61,95.61,0,0,1-24.24,34.53,111.89,111.89,0,0,1-37.56,22.12Q702,297.26,675,297.25t-48.93-7.87a111.62,111.62,0,0,1-37.71-22.12,95.36,95.36,0,0,1-24.24-34.53q-8.49-20.29-8.48-44.84t8.48-44.83a95.49,95.49,0,0,1,24.24-34.54,111.76,111.76,0,0,1,37.71-22.11Q648.05,78.54,675,78.53ZM594.13,187.89a81.25,81.25,0,0,0,5.76,31.05A67,67,0,0,0,616.4,243,75.2,75.2,0,0,0,642,258.48a102.75,102.75,0,0,0,66,0A73.73,73.73,0,0,0,733.48,243a68.08,68.08,0,0,0,16.36-24.09,81.25,81.25,0,0,0,5.76-31.05,81.28,81.28,0,0,0-5.76-31,68,68,0,0,0-16.36-24.08A73.43,73.43,0,0,0,708,117.31a102.58,102.58,0,0,0-66,0,74.89,74.89,0,0,0-25.6,15.45,66.9,66.9,0,0,0-16.51,24.08A81.28,81.28,0,0,0,594.13,187.89Z" transform="translate(-47.15 -76.5)"/><path class="cls-58" d="M857.08,260.29H984.62v33.33H819.21V81.56h37.87Z" transform="translate(-47.15 -76.5)"/></g></g></svg>