<svg xmlns="http://www.w3.org/2000/svg" xmlns:xlink="http://www.w3.org/1999/xlink" viewBox="0 0 937.47 360.47"><defs><style>.cls-1{fill:#d2faff;}.cls-2,.cls-3,.cls-4,.cls-5{fill:#fff;}.cls-2{opacity:0.35;}.cls-2,.cls-23,.cls-24,.cls-26,.cls-3,.cls-4,.cls-9{isolation:isolate;}.cls-3{opacity:0.15;}.cls-4{opacity:0.2;}.cls-6{fill:url(#linear-gradient);}.cls-7{fill:#e04d2b;}.cls-8{fill:#ef3f32;}.cls-9{fill:#fa923d;opacity:0.66;}.cls-10{opacity:0.3;}.cls-11,.cls-12,.cls-13,.cls-14,.cls-15,.cls-18,.cls-25,.cls-28{fill:none;stroke-linecap:round;stroke-linejoin:round;}.cls-11{stroke:#b22f22;stroke-width:0.32px;}.cls-12{stroke:#5d1900;}.cls-12,.cls-13,.cls-28{stroke-width:0.97px;}.cls-13,.cls-14,.cls-15,.cls-18,.cls-25{stroke:#3a3736;}.cls-14{stroke-width:0.49px;}.cls-15{stroke-width:0.16px;}.cls-16{fill:#fc3a4d;}.cls-17{fill:#f0fafc;}.cls-18{stroke-width:0.97px;}.cls-19{fill:#3a3736;}.cls-20{fill:#28afaf;}.cls-21{opacity:0.46;}.cls-22,.cls-23{fill:#1c918e;}.cls-23{opacity:0.6;}.cls-24{fill:#188c89;opacity:0.17;}.cls-25{stroke-width:0.65px;}.cls-26{fill:#2d5b72;opacity:0.54;}.cls-27{opacity:0.48;}.cls-28{stroke:#298589;}.cls-29{opacity:0.62;}.cls-30{opacity:0.59;}.cls-31{opacity:0.33;}.cls-32{fill:#b5b5b5;}.cls-33{fill:#4ca6a8;}.cls-34{fill:#071232;}</style><linearGradient id="linear-gradient" x1="672.93" y1="758.32" x2="672.93" y2="806.9" gradientTransform="matrix(1, 0, 0, -1, 0, 1026)" gradientUnits="userSpaceOnUse"><stop offset="0" stop-color="#7fd8e0" stop-opacity="0"/><stop offset="1" stop-color="#7fd8e0"/></linearGradient></defs><g id="Illustration"><g id="Option_1" data-name="Option 1"><rect class="cls-1" x="546.75" y="30.67" width="161.73" height="161.73"/><circle class="cls-2" cx="627.62" cy="111.54" r="49.93"/><circle class="cls-3" cx="627.62" cy="111.54" r="60.81"/><circle class="cls-4" cx="627.62" cy="111.54" r="49.93"/><circle class="cls-5" cx="627.62" cy="111.54" r="36.19"/><path class="cls-6" d="M731.74,220h0a3.45,3.45,0,0,0-3.45-3.44H617.56a3.44,3.44,0,0,0-3.44,3.44h0a3.45,3.45,0,0,0,3.44,3.45H634.9a3.44,3.44,0,0,1,3.44,3.44h0a3.45,3.45,0,0,1-3.44,3.45h-4.22a3.44,3.44,0,0,0-3.45,3.44h0a3.46,3.46,0,0,0,3.45,3.45H648a3.44,3.44,0,0,1,3.44,3.44h0A3.45,3.45,0,0,1,648,244.1h-3.56a3.44,3.44,0,0,0-3.44,3.44h0a3.44,3.44,0,0,0,3.44,3.44H701.4a3.44,3.44,0,0,0,3.44-3.44h0a3.44,3.44,0,0,0-3.44-3.44h-3.56a3.45,3.45,0,0,1-3.44-3.45h0a3.44,3.44,0,0,1,3.44-3.44h17.35a3.45,3.45,0,0,0,3.45-3.45h0a3.45,3.45,0,0,0-3.45-3.44H711a3.45,3.45,0,0,1-3.44-3.45h0a3.45,3.45,0,0,1,3.44-3.44h17.34A3.45,3.45,0,0,0,731.74,220Z" transform="translate(-47.15 -76.5)"/><path class="cls-7" d="M699.51,197.42a42.1,42.1,0,0,0,14.8-1.33,9,9,0,0,1-.31-5.88c-1.39-.1-1.46-3.69-1.07-5.47-2-.79-3.38-1.79-3.62-3.22a3.56,3.56,0,0,1-2.88-2.55,37.79,37.79,0,0,1-6.73,7.63Z" transform="translate(-47.15 -76.5)"/><path class="cls-8" d="M670.64,153.32v7.28c1-1.28,2.52-2.87,4.12-2.64,1.43.21,1.81,1.7,3,1.92s2.84-.59,5.74-5.51c-2.78,2-4.32,2-5.19,1.63-1.67-.77-1.47-3.22-3.19-4C673.74,151.44,672,152.38,670.64,153.32Z" transform="translate(-47.15 -76.5)"/><path class="cls-7" d="M696.26,198.46a208.13,208.13,0,0,1-40.11-3.64c2.8-10.16,2.54-24.88,2.54-24.88,19.47-2,28.43-7.36,28.43-7.36s1.28,5.6,5.92,8.48c-.79,4.17.56,7.07,3.22,10.35-2.35,2.34.13,6.91,1.31,8.09C695.14,191.92,694.57,196.77,696.26,198.46Z" transform="translate(-47.15 -76.5)"/><path class="cls-9" d="M670.85,197.1c9.95-2.72,12.68-8.62,12.68-17.65a31.83,31.83,0,0,0-3.74-13.79A100.39,100.39,0,0,1,658.7,170s.26,14.72-2.54,24.87C661.16,195.84,666.16,196.56,670.85,197.1Z" transform="translate(-47.15 -76.5)"/><g class="cls-10"><path class="cls-11" d="M663,169.56a70,70,0,0,1-3,26" transform="translate(-47.15 -76.5)"/><path class="cls-11" d="M667.18,168.76a94.23,94.23,0,0,1-3.75,27.35" transform="translate(-47.15 -76.5)"/><path class="cls-11" d="M671.29,168s-1,17.18-4.35,28.66" transform="translate(-47.15 -76.5)"/><path class="cls-11" d="M675.8,166.84S674,186.55,670.4,197" transform="translate(-47.15 -76.5)"/><path class="cls-11" d="M680.37,165.64s-3,22.43-6.35,31.78" transform="translate(-47.15 -76.5)"/><path class="cls-11" d="M685.37,163.6s-4.77,26.09-7.81,34.32" transform="translate(-47.15 -76.5)"/><path class="cls-11" d="M689,167s-5,23.85-7.78,30.95" transform="translate(-47.15 -76.5)"/><path class="cls-11" d="M693,171.06s-5.69,21.43-8.22,27.4" transform="translate(-47.15 -76.5)"/><path class="cls-11" d="M694.8,179.44s-3.9,14.18-6.14,19" transform="translate(-47.15 -76.5)"/><path class="cls-11" d="M696.26,187.56s-1.75,7.19-3.72,10.91" transform="translate(-47.15 -76.5)"/></g><path class="cls-12" d="M696.26,198.46a208.13,208.13,0,0,1-40.11-3.64c2.8-10.16,2.54-24.88,2.54-24.88,19.47-2,28.43-7.36,28.43-7.36" transform="translate(-47.15 -76.5)"/><path class="cls-13" d="M696.26,198.46a208.13,208.13,0,0,1-40.11-3.64c2.8-10.16,2.54-24.88,2.54-24.88,19.47-2,28.43-7.36,28.43-7.36s1.28,5.6,5.92,8.48c-.79,4.17.56,7.07,3.22,10.35-2.35,2.34.13,6.91,1.31,8.09C695.14,191.92,694.57,196.77,696.26,198.46Z" transform="translate(-47.15 -76.5)"/><path class="cls-14" d="M693,171.06c-14.88,5.5-34.5,6.11-34.5,6.11" transform="translate(-47.15 -76.5)"/><line class="cls-15" x1="623.23" y1="87.1" x2="645.67" y2="126.77"/><line class="cls-15" x1="622.3" y1="108.26" x2="604.91" y2="132.84"/><line class="cls-15" x1="622.7" y1="100.88" x2="593.25" y2="129.88"/><line class="cls-15" x1="623.49" y1="84.09" x2="653.74" y2="125.9"/><path class="cls-13" d="M670.35,152s1.86,40.67-8.07,58.69" transform="translate(-47.15 -76.5)"/><polygon class="cls-16" points="643.87 129.43 608.42 129.88 613.45 127.53 638.78 127.21 643.87 129.43"/><polygon class="cls-13" points="643.87 129.43 608.42 129.88 613.45 127.53 638.78 127.21 643.87 129.43"/><rect class="cls-17" x="658.27" y="206.15" width="30.11" height="4.77" transform="translate(-49.74 -67.94) rotate(-0.73)"/><rect class="cls-18" x="658.27" y="206.15" width="30.11" height="4.77" transform="translate(-49.74 -67.94) rotate(-0.73)"/><rect class="cls-18" x="670.86" y="208.04" width="4.9" height="2.83" transform="translate(-49.75 -67.94) rotate(-0.73)"/><polyline class="cls-13" points="623.74 134.39 623.7 131.58 628.6 131.51 628.65 134.34"/><rect class="cls-19" x="670.86" y="208.04" width="4.9" height="2.83" transform="translate(-49.75 -67.94) rotate(-0.73)"/><polyline class="cls-19" points="623.74 134.39 623.7 131.58 628.6 131.51 628.65 134.34"/><rect class="cls-18" x="662.5" y="208.14" width="4.9" height="2.83" transform="translate(-49.75 -68.05) rotate(-0.73)"/><polyline class="cls-13" points="615.37 134.49 615.34 131.67 620.24 131.61 620.27 134.44"/><rect class="cls-19" x="662.5" y="208.14" width="4.9" height="2.83" transform="translate(-49.75 -68.05) rotate(-0.73)"/><polyline class="cls-19" points="615.37 134.49 615.34 131.67 620.24 131.61 620.27 134.44"/><rect class="cls-18" x="679.26" y="207.93" width="4.9" height="2.83" transform="translate(-49.75 -67.84) rotate(-0.73)"/><polyline class="cls-13" points="632.13 134.28 632.1 131.45 637 131.4 637.03 134.21"/><rect class="cls-19" x="679.26" y="207.93" width="4.9" height="2.83" transform="translate(-49.75 -67.84) rotate(-0.73)"/><polyline class="cls-19" points="632.13 134.28 632.1 131.45 637 131.4 637.03 134.21"/><path class="cls-14" d="M696.26,181.41c-12.63,2.26-37.72,1.76-37.72,1.76" transform="translate(-47.15 -76.5)"/><path class="cls-14" d="M657.54,188c1.18,1.18,34.53,3.07,40,1.46" transform="translate(-47.15 -76.5)"/><path class="cls-20" d="M709.21,208.29a90.93,90.93,0,0,1,2.49-9.85,29.56,29.56,0,0,1-12.48,4.2c-2.17.31-4.32.52-6.41.62-1.94,3-3.57,5.17-15.09,6.81-9.28,1.32-26.8,1.42-39.8-4.56,3.24,8.13,9.49,13.44,16,14.84H693C693.05,214.48,701.59,209.55,709.21,208.29Z" transform="translate(-47.15 -76.5)"/><g class="cls-21"><path class="cls-22" d="M642.85,207.46a45.77,45.77,0,0,1-4.93-1.92c0,.08.07.18.11.26A50.65,50.65,0,0,0,642.85,207.46Z" transform="translate(-47.15 -76.5)"/><path class="cls-23" d="M709.4,199.7c-.77,2.62-1.08,4.51-1.73,7.25-7.61,1.26-16.33,7-16.35,12.9H652.19c-.2,0-.39-.08-.59-.14a21.2,21.2,0,0,0,2.32.68h39.13c0-5.91,8.56-10.84,16.18-12.1a90.93,90.93,0,0,1,2.49-9.85C710.89,198.92,710.13,199.33,709.4,199.7Z" transform="translate(-47.15 -76.5)"/></g><path class="cls-24" d="M709.73,206a208.54,208.54,0,0,1-33.93,4.88c-.58.1,2.57-.84,1.92-.74-9.28,1.33-26.8,1.42-39.8-4.56,3.24,8.13,9.49,13.44,16,14.85H693c0-5.91,8.55-10.84,16.17-12.1.18-.78.36-1.55.52-2.33Z" transform="translate(-47.15 -76.5)"/><path class="cls-25" d="M654.72,211.59c-8.19-1.23-14.55-3.54-16.8-6.05,3.24,8.13,9.49,13.44,16,14.85H693c0-5.91,8.55-10.84,16.17-12.1.18-.78.36-1.55.52-2.33h0c-15.72,3.59-28.85,5.82-36.41,6.39a88.19,88.19,0,0,1-17.16-.57" transform="translate(-47.15 -76.5)"/><path class="cls-26" d="M679.52,216.16c-14.09.91-27.42.62-37.07-3a21.25,21.25,0,0,0,11.45,7.23H693c0-2.32,1.32-4.48,3.38-6.33A138.08,138.08,0,0,1,679.52,216.16Z" transform="translate(-47.15 -76.5)"/><path class="cls-25" d="M678.42,216.23c-6,.34-13.6.37-18.94.13" transform="translate(-47.15 -76.5)"/><path class="cls-25" d="M682.8,215.94c-.89.08-2.09.14-3,.21" transform="translate(-47.15 -76.5)"/><path class="cls-25" d="M658.23,216.28a58.63,58.63,0,0,1-15.78-3.12,21.25,21.25,0,0,0,11.45,7.23H693c0-2.32,1.32-4.48,3.38-6.33-3.9.75-8,1.33-12.24,1.73" transform="translate(-47.15 -76.5)"/><path class="cls-13" d="M709.21,208.29a90.93,90.93,0,0,1,2.49-9.85,29.56,29.56,0,0,1-12.48,4.2c-2.17.31-4.32.52-6.41.62-1.94,3-3.57,5.17-15.09,6.81-9.28,1.32-26.8,1.42-39.8-4.56,3.24,8.13,9.49,13.44,16,14.84H693C693.05,214.48,701.59,209.55,709.21,208.29Z" transform="translate(-47.15 -76.5)"/><path class="cls-7" d="M643.68,203.34h11.89a3.9,3.9,0,0,1-.76-4.88c-1.88-1-2.27-4.05-1.33-5a4.3,4.3,0,0,1-2.22-1.74,6.67,6.67,0,0,1-.71-5.13c-4.74.2-5.9-2.75-5.9-2.75l-7.08,5.47S643.68,194.87,643.68,203.34Z" transform="translate(-47.15 -76.5)"/><path class="cls-9" d="M649.36,203.34a24.17,24.17,0,0,0,.16-2.59c0-7.42-3.74-13.5-8.51-14.1l-3.46,2.67s6.13,5.55,6.13,14Z" transform="translate(-47.15 -76.5)"/><g class="cls-10"><path class="cls-11" d="M639.22,188s7.68,7,7.89,15.3" transform="translate(-47.15 -76.5)"/><path class="cls-11" d="M641,186.65s7.73,5.21,9.53,16.63" transform="translate(-47.15 -76.5)"/><path class="cls-11" d="M642.85,185.23s8.74,5.54,10.61,18.13" transform="translate(-47.15 -76.5)"/></g><path class="cls-13" d="M643.68,203.34h11.89a3.9,3.9,0,0,1-.76-4.88c-1.88-1-2.27-4.05-1.33-5a4.3,4.3,0,0,1-2.22-1.74,6.67,6.67,0,0,1-.71-5.13c-4.74.2-5.9-2.75-5.9-2.75l-7.08,5.47S643.68,194.87,643.68,203.34Z" transform="translate(-47.15 -76.5)"/><path class="cls-9" d="M706.78,197.44a10.86,10.86,0,0,0,1.54-5.68,10,10,0,0,0-4.87-8.91c-1.13,1.24-2.42,2.51-3.75,3.75l-.19,10.82A40.12,40.12,0,0,0,706.78,197.44Z" transform="translate(-47.15 -76.5)"/><g class="cls-10"><path class="cls-11" d="M700.88,185.49s1.51,8.76.49,12" transform="translate(-47.15 -76.5)"/><path class="cls-11" d="M704.83,181.25a26,26,0,0,1,6.87,15.36" transform="translate(-47.15 -76.5)"/><path class="cls-11" d="M702.05,184.34a31.66,31.66,0,0,1,2.78,13.26" transform="translate(-47.15 -76.5)"/><path class="cls-11" d="M703.45,182.85a39.8,39.8,0,0,1,5.1,14.39" transform="translate(-47.15 -76.5)"/></g><path class="cls-14" d="M699.51,197.42a42.1,42.1,0,0,0,14.8-1.33,9,9,0,0,1-.31-5.88c-1.39-.1-1.46-3.69-1.07-5.47-2-.79-3.38-1.79-3.62-3.22a3.56,3.56,0,0,1-2.88-2.55,37.79,37.79,0,0,1-6.73,7.63Z" transform="translate(-47.15 -76.5)"/><path class="cls-14" d="M699.64,188.28a47.83,47.83,0,0,0,9.67-6.74" transform="translate(-47.15 -76.5)"/><line class="cls-13" x1="661.18" y1="143.88" x2="661.61" y2="143.88"/><line class="cls-13" x1="654.9" y1="143.88" x2="658.56" y2="143.88"/><line class="cls-13" x1="590.99" y1="143.88" x2="652.07" y2="143.88"/><line class="cls-13" x1="585.55" y1="143.88" x2="587.51" y2="143.88"/><g class="cls-27"><line class="cls-28" x1="642.61" y1="146.39" x2="646.1" y2="146.39"/><line class="cls-28" x1="634.31" y1="146.39" x2="640.25" y2="146.39"/></g><line class="cls-13" x1="625.71" y1="150.92" x2="626.95" y2="150.92"/><line class="cls-13" x1="619.81" y1="150.92" x2="623.69" y2="150.92"/><path class="cls-13" d="M639.31,184.76s8.35,11.35,6.2,23.5" transform="translate(-47.15 -76.5)"/><line class="cls-14" x1="592.86" y1="115.74" x2="603.37" y2="110.1"/><line class="cls-14" x1="595.01" y1="119.61" x2="606.32" y2="116.99"/><line class="cls-14" x1="596.39" y1="123.49" x2="607.51" y2="122.2"/><g class="cls-29"><line class="cls-13" x1="624.61" y1="146.39" x2="625.16" y2="146.39"/><line class="cls-13" x1="620.27" y1="146.39" x2="622.6" y2="146.39"/><line class="cls-13" x1="604.91" y1="146.39" x2="617.82" y2="146.39"/><line class="cls-13" x1="602.36" y1="146.39" x2="602.86" y2="146.39"/></g><line class="cls-13" x1="640.41" y1="152.75" x2="652.04" y2="152.75"/><line class="cls-13" x1="636.4" y1="152.75" x2="638.4" y2="152.75"/><line class="cls-13" x1="633.2" y1="152.75" x2="634.04" y2="152.75"/><g class="cls-30"><line class="cls-13" x1="622.38" y1="155.17" x2="624.38" y2="155.17"/><line class="cls-13" x1="610.46" y1="155.17" x2="620.37" y2="155.17"/></g><g class="cls-30"><line class="cls-13" x1="637.61" y1="161.42" x2="639.62" y2="161.42"/><line class="cls-13" x1="630.85" y1="161.42" x2="635.61" y2="161.42"/></g><g class="cls-30"><line class="cls-13" x1="619.14" y1="161.42" x2="620.23" y2="161.42"/><line class="cls-13" x1="614.84" y1="161.42" x2="617.43" y2="161.42"/></g><g class="cls-31"><line class="cls-13" x1="624.75" y1="167.64" x2="628.65" y2="167.64"/><line class="cls-13" x1="611.65" y1="167.64" x2="620.86" y2="167.64"/></g><path class="cls-14" d="M704.83,204.37a13.85,13.85,0,0,0,3.7-1.11" transform="translate(-47.15 -76.5)"/><path class="cls-14" d="M694.4,206a78.52,78.52,0,0,0,8.79-1.2" transform="translate(-47.15 -76.5)"/><path class="cls-14" d="M699.64,194.8c5.4,0,11.25-1.78,14.36-4.58" transform="translate(-47.15 -76.5)"/><path class="cls-14" d="M699.51,192.05a33,33,0,0,0,13.42-7.31" transform="translate(-47.15 -76.5)"/><path class="cls-13" d="M703,181.94s-1.37,11.55-.82,20.24" transform="translate(-47.15 -76.5)"/></g></g><g id="Text"><g id="Sub"><path class="cls-32" d="M107.26,435.53,77.14,399.29v36.24h-24v-84h51a39.12,39.12,0,0,1,12.42,1.86,28.48,28.48,0,0,1,9.54,5.22,22.87,22.87,0,0,1,6.12,8.16,25.44,25.44,0,0,1,2.16,10.56q0,10.56-6.66,17.34t-18.18,8.1l27.24,32.76ZM96.94,390.77c4.08,0,7.33-.94,9.78-2.82a8.91,8.91,0,0,0,3.66-7.38,9,9,0,0,0-3.54-7.38,14.5,14.5,0,0,0-9.3-2.82H77.14v20.4Z" transform="translate(-47.15 -76.5)"/><path class="cls-32" d="M224.61,351.53v19.56H171.69v13.2h46.56v17.28H171.69V416h52.92v19.56H147.69v-84Z" transform="translate(-47.15 -76.5)"/><path class="cls-32" d="M267.21,417.89q11.4,0,16.5-2.16t5.1-5.52a4,4,0,0,0-1.14-2.7,10.42,10.42,0,0,0-3.78-2.34,47.73,47.73,0,0,0-7-2.1q-4.38-1-11-2.22-15.72-2.76-23.52-9.24t-7.8-15.84a19.36,19.36,0,0,1,3-10.68,25,25,0,0,1,8.64-8,46.46,46.46,0,0,1,13.68-5A86,86,0,0,1,278,350.33a80.81,80.81,0,0,1,14,1,49.49,49.49,0,0,1,9,2.34,20.42,20.42,0,0,1,6.36,3.36v18.12a44.47,44.47,0,0,0-7.56-3.48,69.25,69.25,0,0,0-9-2.34,62.47,62.47,0,0,0-12-1,63.72,63.72,0,0,0-7.5.42,33.58,33.58,0,0,0-6.18,1.26,12.15,12.15,0,0,0-4.2,2.16,4,4,0,0,0-1.56,3.12q0,3.48,5,5a123.38,123.38,0,0,0,15.36,3.24,75.21,75.21,0,0,1,15.72,4.14,36,36,0,0,1,10.26,6,20.47,20.47,0,0,1,5.58,7.44,21.42,21.42,0,0,1,1.68,8.34,21,21,0,0,1-3.12,11.28,26.19,26.19,0,0,1-9,8.58,48.57,48.57,0,0,1-14.28,5.46,85.38,85.38,0,0,1-19,1.92,80,80,0,0,1-16.08-1.38,69,69,0,0,1-10.74-3,34,34,0,0,1-7.74-4.26V409.25a37.68,37.68,0,0,0,5.94,3.18,55.52,55.52,0,0,0,8.16,2.82,80.92,80.92,0,0,0,9.66,1.92A74.59,74.59,0,0,0,267.21,417.89Z" transform="translate(-47.15 -76.5)"/><path class="cls-32" d="M399.69,351.53v19.56H346.77v13.2h46.56v17.28H346.77V416h52.92v19.56H322.77v-84Z" transform="translate(-47.15 -76.5)"/><path class="cls-32" d="M477.33,420.65h-37.8l-6.24,14.88H408.81l36-84h27.84l36,84H483.57Zm-31.08-16.2h24.48l-12.12-29.28Z" transform="translate(-47.15 -76.5)"/><path class="cls-32" d="M570.21,435.53l-30.12-36.24v36.24h-24v-84h51a39.12,39.12,0,0,1,12.42,1.86,28.48,28.48,0,0,1,9.54,5.22,22.87,22.87,0,0,1,6.12,8.16,25.44,25.44,0,0,1,2.16,10.56q0,10.56-6.66,17.34t-18.18,8.1l27.24,32.76Zm-10.32-44.76q6.12,0,9.78-2.82a8.88,8.88,0,0,0,3.66-7.38,9,9,0,0,0-3.54-7.38,14.48,14.48,0,0,0-9.3-2.82h-20.4v20.4Z" transform="translate(-47.15 -76.5)"/><path class="cls-32" d="M687.33,410.93v20.52a41.84,41.84,0,0,1-12.06,4.14A79.4,79.4,0,0,1,660,437a75.69,75.69,0,0,1-22.44-3.12,53.24,53.24,0,0,1-17.28-8.76,38.59,38.59,0,0,1-11.1-13.68,42.39,42.39,0,0,1,0-35.52,38.59,38.59,0,0,1,11.1-13.68,53.24,53.24,0,0,1,17.28-8.76A75.69,75.69,0,0,1,660,350.33a79.4,79.4,0,0,1,15.3,1.38,41.84,41.84,0,0,1,12.06,4.14v20.52a33.57,33.57,0,0,0-10.38-4.2,57.9,57.9,0,0,0-13.38-1.44,54.93,54.93,0,0,0-14,1.68,36,36,0,0,0-10.86,4.68,22.06,22.06,0,0,0-7,7.2,19,19,0,0,0,0,18.72,22.06,22.06,0,0,0,7,7.2,36,36,0,0,0,10.86,4.68,54.93,54.93,0,0,0,14,1.68Q678.57,416.57,687.33,410.93Z" transform="translate(-47.15 -76.5)"/><path class="cls-32" d="M722.73,383.57h38.52v-32h24v84h-24V402.29H722.73v33.24h-24v-84h24Z" transform="translate(-47.15 -76.5)"/><path class="cls-32" d="M874.89,351.53v19.56H822v13.2h46.56v17.28H822V416h52.92v19.56H798v-84Z" transform="translate(-47.15 -76.5)"/><path class="cls-32" d="M941.13,435.53,911,399.29v36.24H887v-84h51a39.12,39.12,0,0,1,12.42,1.86,28.48,28.48,0,0,1,9.54,5.22,22.87,22.87,0,0,1,6.12,8.16,25.44,25.44,0,0,1,2.16,10.56q0,10.56-6.66,17.34t-18.18,8.1l27.24,32.76Zm-10.32-44.76q6.12,0,9.78-2.82a8.88,8.88,0,0,0,3.66-7.38,9,9,0,0,0-3.54-7.38,14.48,14.48,0,0,0-9.3-2.82H911v20.4Z" transform="translate(-47.15 -76.5)"/></g><g id="Main"><path class="cls-33" d="M185.59,294.62H138L47.15,82.56h41.2L162,260.08,235.27,82.56h41.2Z" transform="translate(-47.15 -76.5)"/><path class="cls-33" d="M295.86,95.59a17.71,17.71,0,0,1,6.05-13.48,20.67,20.67,0,0,1,14.55-5.61,21,21,0,0,1,14.84,5.61,18.52,18.52,0,0,1,0,27.41A21.37,21.37,0,0,1,316.46,115a21,21,0,0,1-14.55-5.46A17.89,17.89,0,0,1,295.86,95.59Zm3.33,30a89.65,89.65,0,0,0,17.57,1.82A82.4,82.4,0,0,0,334,125.58v169H299.19Z" transform="translate(-47.15 -76.5)"/><path class="cls-34" d="M442.66,264.23q28.47,0,44.53-8.48t16.06-22.42q0-10.9-12.72-18.32T446.9,200.92q-41.81-8.79-61.49-23.78t-19.69-38.32A47.76,47.76,0,0,1,372.38,114a57.92,57.92,0,0,1,18.93-19.08q12.27-7.87,30-12.12a172,172,0,0,1,39.84-4.24q19.08,0,31.51,2.58A110.6,110.6,0,0,1,512.94,87a45.83,45.83,0,0,1,13.94,8.49v32.71a81.72,81.72,0,0,0-17.27-9.09,141.75,141.75,0,0,0-21.51-6.21,138.91,138.91,0,0,0-28.47-2.57q-24.86,0-40.14,7.42t-15.3,20.15q0,10.6,12.12,17T455.69,167q45.74,9.39,65.74,25.75t20,39.68a51.65,51.65,0,0,1-7,26.51,59.52,59.52,0,0,1-20.14,20.3q-13.18,8.34-31.81,12.87a177.46,177.46,0,0,1-42,4.55q-21.81,0-36.81-3.49a138.84,138.84,0,0,1-24.23-7.57,76.74,76.74,0,0,1-17.42-10.75V239.39q1.51.92,7.57,5a97.62,97.62,0,0,0,16.51,8.48,165.75,165.75,0,0,0,24.69,7.88A134.18,134.18,0,0,0,442.66,264.23Z" transform="translate(-47.15 -76.5)"/><path class="cls-34" d="M675,78.53q27,0,48.77,7.88a112,112,0,0,1,37.56,22.11,95.73,95.73,0,0,1,24.24,34.54q8.48,20.3,8.48,44.83t-8.48,44.84a95.61,95.61,0,0,1-24.24,34.53,111.89,111.89,0,0,1-37.56,22.12Q702,297.26,675,297.25t-48.93-7.87a111.62,111.62,0,0,1-37.71-22.12,95.36,95.36,0,0,1-24.24-34.53q-8.49-20.29-8.48-44.84t8.48-44.83a95.49,95.49,0,0,1,24.24-34.54,111.76,111.76,0,0,1,37.71-22.11Q648.05,78.54,675,78.53ZM594.13,187.89a81.25,81.25,0,0,0,5.76,31.05A67,67,0,0,0,616.4,243,75.2,75.2,0,0,0,642,258.48a102.75,102.75,0,0,0,66,0A73.73,73.73,0,0,0,733.48,243a68.08,68.08,0,0,0,16.36-24.09,81.25,81.25,0,0,0,5.76-31.05,81.28,81.28,0,0,0-5.76-31,68,68,0,0,0-16.36-24.08A73.43,73.43,0,0,0,708,117.31a102.58,102.58,0,0,0-66,0,74.89,74.89,0,0,0-25.6,15.45,66.9,66.9,0,0,0-16.51,24.08A81.28,81.28,0,0,0,594.13,187.89Z" transform="translate(-47.15 -76.5)"/><path class="cls-34" d="M857.08,260.29H984.62v33.33H819.21V81.56h37.87Z" transform="translate(-47.15 -76.5)"/></g></g></svg>