<?xml version="1.0" standalone="no"?>
<!DOCTYPE svg PUBLIC "-//W3C//DTD SVG 20010904//EN"
 "http://www.w3.org/TR/2001/REC-SVG-20010904/DTD/svg10.dtd">
<svg version="1.0" xmlns="http://www.w3.org/2000/svg"
 width="700.000000pt" height="700.000000pt" viewBox="0 0 700.000000 700.000000"
 preserveAspectRatio="xMidYMid meet">
<metadata>
Created by potrace 1.14, written by Peter Selinger 2001-2017
</metadata>
<g transform="translate(0.000000,700.000000) scale(0.100000,-0.100000)"
fill="#000000" stroke="none">
<path d="M3608 4928 l-3 -183 -40 -5 -40 -5 -3 -69 c-2 -40 2 -74 8 -80 7 -7
4 -16 -12 -29 -17 -13 -12 -12 18 4 55 31 74 22 74 -36 l0 -45 -95 0 c-95 0
-96 0 -107 -27 -18 -43 -22 -182 -6 -228 l13 -40 95 -5 95 -5 0 -30 0 -30
-150 -5 -149 -5 -19 -60 c-14 -43 -20 -89 -20 -160 0 -71 6 -117 20 -160 l19
-60 149 -5 150 -5 0 -30 0 -30 -192 -3 -192 -2 -20 -63 c-50 -154 -66 -290
-51 -434 11 -105 41 -237 66 -284 l15 -29 189 0 190 0 0 -51 0 -50 -178 3
c-176 3 -179 3 -220 31 -51 33 -83 93 -91 167 -5 49 -9 55 -31 58 -69 7 -90
15 -129 48 -66 57 -74 81 -81 228 l-5 130 -125 31 -125 31 -3 72 -3 72 155 0
c113 0 155 3 158 12 3 7 -7 46 -21 88 -23 68 -25 90 -25 235 0 145 2 167 25
235 14 42 24 81 21 88 -3 9 -45 12 -158 12 l-154 0 0 29 c0 28 3 30 43 34 l42
4 -41 1 c-33 2 -43 6 -47 23 -10 39 -32 15 -35 -39 l-3 -52 -149 0 c-140 0
-150 -1 -160 -20 -26 -48 -52 -182 -57 -295 -3 -66 -10 -127 -16 -135 -9 -12
-9 -13 3 -2 12 11 17 1 31 -66 10 -43 24 -95 33 -115 l15 -37 150 0 151 0 0
-65 c0 -36 -3 -65 -7 -65 -5 0 -104 23 -222 52 -196 47 -215 50 -226 35 -7
-10 -16 -17 -21 -17 -25 0 -183 54 -178 61 3 5 -2 6 -10 3 -8 -3 -45 4 -82 15
-69 21 -84 20 -84 -4 0 -9 36 -25 103 -45 268 -82 251 -75 252 -105 0 -27 3
-29 108 -53 l108 -26 -8 -70 c-11 -95 -7 -267 7 -363 25 -166 100 -357 184
-472 47 -64 146 -155 220 -203 l59 -38 -241 0 c-231 0 -242 -1 -242 -19 0 -10
7 -22 16 -25 9 -3 552 -6 1209 -6 1032 0 1194 2 1205 15 24 29 0 35 -143 35
l-142 0 63 38 c232 140 360 346 393 637 l13 105 38 0 38 0 0 185 0 185 -185 0
-185 0 0 45 0 44 123 3 c140 3 132 -4 101 103 -23 81 -23 239 0 320 34 117 46
104 -95 107 -119 3 -124 4 -127 25 -3 22 0 22 95 25 80 2 98 6 96 18 -1 8 -7
43 -13 76 -10 50 -9 72 3 120 8 32 13 62 10 66 -2 5 -47 8 -99 8 l-94 0 0 36
c0 28 -3 35 -17 32 -12 -2 -19 -14 -21 -36 l-3 -32 -94 0 -93 0 -13 -37 c-8
-21 -13 -69 -13 -108 0 -38 5 -87 13 -107 l13 -38 94 0 c93 0 94 0 94 -25 l0
-24 -122 -3 -122 -3 -20 -60 c-16 -48 -20 -87 -20 -200 0 -113 4 -152 20 -200
l20 -60 122 -3 122 -3 0 -44 0 -45 -162 -2 -163 -3 -5 -185 c-5 -183 -5 -186
-35 -239 -44 -81 -117 -148 -204 -190 -75 -35 -79 -36 -218 -39 l-143 -4 0 51
0 51 183 0 c121 0 187 4 194 11 8 8 6 25 -7 64 -72 210 -73 459 -1 668 11 31
17 58 14 61 -4 3 -91 6 -195 6 l-188 0 0 35 0 35 144 0 c82 0 147 4 151 10 3
5 -2 35 -12 67 -23 77 -23 219 0 296 10 32 15 62 12 67 -4 6 -69 10 -151 10
l-144 0 0 35 0 35 106 0 106 0 -6 28 c-12 49 -19 160 -12 187 4 15 12 25 19
22 38 -16 50 -17 27 -4 -14 9 -27 26 -30 39 -5 18 -13 24 -45 26 -22 2 -46 9
-54 15 -12 9 -13 9 -7 0 5 -10 -7 -13 -48 -13 l-56 0 0 52 0 52 47 -44 c40
-38 42 -39 13 -7 -32 35 -33 39 -17 48 14 8 17 24 17 84 l0 75 -30 0 c-26 0
-30 4 -30 28 l0 27 65 -3 c52 -3 90 4 188 32 125 37 195 44 242 26 l26 -10
-20 29 c-11 15 -37 41 -57 56 l-37 28 24 18 c13 10 39 24 58 30 l34 12 -27 14
c-48 25 -116 26 -232 4 -124 -23 -186 -26 -232 -10 -26 9 -31 16 -34 47 -2 25
-8 38 -20 40 -16 3 -18 -13 -20 -180z m62 -268 l0 -40 -50 0 -50 0 0 40 0 40
50 0 50 0 0 -40z m79 -226 c56 -6 61 -9 55 -27 -9 -27 -8 -138 0 -165 l7 -22
-185 0 -185 0 -7 46 c-7 47 0 145 11 164 7 11 206 14 304 4z m1006 -279 l0
-105 -167 0 -168 0 -7 28 c-4 15 -7 50 -7 77 0 28 3 62 7 78 l7 27 168 0 167
0 0 -105z m-2205 19 c0 -3 -5 -15 -11 -27 -7 -16 -4 -14 11 6 l22 27 155 0
155 0 -6 -22 c-52 -178 -52 -368 0 -546 l6 -22 -288 2 -289 3 -18 55 c-10 30
-19 85 -20 121 -1 37 -6 64 -11 61 -14 -8 1 170 20 247 27 107 18 101 154 101
66 0 120 -3 120 -6z m1345 -121 c-32 -83 -32 -253 0 -335 7 -17 -10 -18 -274
-18 l-281 0 -13 28 c-7 16 -12 78 -12 157 0 79 5 141 12 158 l13 27 281 0
c264 0 281 -1 274 -17z m907 -180 c-21 -66 -21 -290 0 -356 l16 -47 -226 2
-227 3 -17 65 c-21 82 -22 216 -3 299 9 35 18 67 21 72 3 5 106 9 229 9 l223
0 -16 -47z m-827 -340 c-54 -140 -68 -426 -28 -583 12 -47 25 -93 28 -102 7
-17 -14 -18 -359 -18 l-365 0 -20 66 c-57 182 -55 427 5 606 l16 48 365 0
c344 0 365 -1 358 -17z m-1476 -143 c182 -44 333 -80 336 -80 3 0 5 -11 5 -25
0 -14 -4 -25 -10 -25 -14 0 -673 160 -678 165 -4 4 7 45 13 45 2 0 152 -36
334 -80z m2451 -235 l0 -145 -60 0 -60 0 0 69 c0 60 -3 74 -26 100 -26 31 -60
39 -99 25 -28 -11 -45 -60 -45 -129 l0 -65 -40 0 -40 0 0 75 c0 67 -3 79 -25
100 -31 32 -75 32 -111 2 -24 -21 -27 -32 -32 -100 l-5 -77 -58 0 -59 0 0 123
c0 67 3 132 6 145 l6 22 324 0 324 0 0 -145z m-364 -263 c34 -23 12 -82 -32
-82 -32 0 -51 38 -35 69 12 21 46 28 67 13z m-1638 -424 c28 -28 7 -78 -33
-78 -27 0 -45 18 -45 45 0 27 18 45 45 45 12 0 26 -5 33 -12z m330 -24 c4 -38
-18 -59 -53 -50 -15 4 -27 16 -31 31 -9 35 12 57 50 53 27 -3 31 -7 34 -34z
m322 15 c14 -26 -11 -69 -40 -69 -39 0 -65 51 -38 78 20 20 66 15 78 -9z m320
1 c27 -50 -32 -92 -73 -52 -18 18 -19 25 -9 47 15 32 66 35 82 5z m320 5 c31
-38 -27 -96 -65 -65 -15 13 -21 61 -8 73 12 13 60 7 73 -8z"/>
<path d="M2509 4103 c-13 -16 -12 -17 4 -4 16 13 21 21 13 21 -2 0 -10 -8 -17
-17z"/>
<path d="M2479 4063 c-13 -16 -12 -17 4 -4 9 7 17 15 17 17 0 8 -8 3 -21 -13z"/>
<path d="M2434 4008 l-29 -33 33 29 c17 17 32 31 32 33 0 8 -8 1 -36 -29z"/>
<path d="M2345 3908 l-50 -53 53 50 c48 46 57 55 49 55 -1 0 -25 -24 -52 -52z"/>
<path d="M3430 4510 c-30 -16 -51 -29 -47 -30 10 0 107 49 107 55 0 7 1 7 -60
-25z"/>
<path d="M3320 4460 c-8 -5 -10 -10 -5 -10 6 0 17 5 25 10 8 5 11 10 5 10 -5
0 -17 -5 -25 -10z"/>
<path d="M3270 4440 c-8 -5 -10 -10 -5 -10 6 0 17 5 25 10 8 5 11 10 5 10 -5
0 -17 -5 -25 -10z"/>
<path d="M3930 4390 c8 -5 20 -10 25 -10 6 0 3 5 -5 10 -8 5 -19 10 -25 10 -5
0 -3 -5 5 -10z"/>
<path d="M3048 4363 c7 -3 16 -2 19 1 4 3 -2 6 -13 5 -11 0 -14 -3 -6 -6z"/>
<path d="M4008 4363 c7 -3 16 -2 19 1 4 3 -2 6 -13 5 -11 0 -14 -3 -6 -6z"/>
<path d="M4048 4353 c7 -3 16 -2 19 1 4 3 -2 6 -13 5 -11 0 -14 -3 -6 -6z"/>
<path d="M2978 4343 c7 -3 16 -2 19 1 4 3 -2 6 -13 5 -11 0 -14 -3 -6 -6z"/>
<path d="M4088 4343 c6 -2 18 -2 25 0 6 3 1 5 -13 5 -14 0 -19 -2 -12 -5z"/>
<path d="M4538 4343 c6 -2 18 -2 25 0 6 3 1 5 -13 5 -14 0 -19 -2 -12 -5z"/>
<path d="M2938 4333 c7 -3 16 -2 19 1 4 3 -2 6 -13 5 -11 0 -14 -3 -6 -6z"/>
<path d="M4153 4333 c9 -2 23 -2 30 0 6 3 -1 5 -18 5 -16 0 -22 -2 -12 -5z"/>
<path d="M4453 4333 c9 -2 25 -2 35 0 9 3 1 5 -18 5 -19 0 -27 -2 -17 -5z"/>
<path d="M2898 4323 c7 -3 16 -2 19 1 4 3 -2 6 -13 5 -11 0 -14 -3 -6 -6z"/>
<path d="M4273 4323 c26 -2 67 -2 90 0 23 2 2 3 -48 3 -49 0 -68 -1 -42 -3z"/>
<path d="M2848 4313 c7 -3 16 -2 19 1 4 3 -2 6 -13 5 -11 0 -14 -3 -6 -6z"/>
<path d="M2798 4303 c6 -2 18 -2 25 0 6 3 1 5 -13 5 -14 0 -19 -2 -12 -5z"/>
<path d="M2738 4293 c6 -2 18 -2 25 0 6 3 1 5 -13 5 -14 0 -19 -2 -12 -5z"/>
<path d="M2086 3684 c-110 -91 -133 -114 -47 -48 67 51 150 123 141 123 -3 0
-45 -34 -94 -75z"/>
<path d="M1949 3573 c-13 -16 -12 -17 4 -4 16 13 21 21 13 21 -2 0 -10 -8 -17
-17z"/>
<path d="M1872 2168 c3 -23 5 -23 168 -25 91 -2 171 1 179 6 8 5 11 16 8 25
-6 14 -30 16 -182 16 l-176 0 3 -22z"/>
<path d="M4780 2171 c0 -24 19 -31 90 -31 38 0 62 5 70 15 21 26 0 35 -81 35
-71 0 -79 -2 -79 -19z"/>
<path d="M4997 2183 c-13 -12 -7 -32 12 -38 26 -8 51 4 51 26 0 14 -7 19 -28
19 -16 0 -32 -3 -35 -7z"/>
</g>
</svg>
